<?xml version="1.0" encoding="UTF-8"?>
<svg version="1.1" xmlns="http://www.w3.org/2000/svg" width="2000" height="1500">
<path d="M0 0 C660 0 1320 0 2000 0 C2000 495 2000 990 2000 1500 C1340 1500 680 1500 0 1500 C0 1005 0 510 0 0 Z " fill="#F1EFE3" transform="translate(0,0)"/>
<path d="M0 0 C1.53744873 0.00725098 1.53744873 0.00725098 3.10595703 0.01464844 C34.02583053 0.25868848 62.7453061 8.82980443 87.9375 27.125 C88.72898437 27.6921875 89.52046875 28.259375 90.3359375 28.84375 C113.22543118 46.18197113 129.19355672 69.32127253 138.9375 96.125 C139.24300781 96.93195313 139.54851562 97.73890625 139.86328125 98.5703125 C151.9188262 132.07854514 147.56911409 170.6253745 132.98828125 202.44140625 C129.0159243 210.81747185 124.39354947 218.61617944 118.9375 226.125 C118.35871094 226.92808594 117.77992188 227.73117187 117.18359375 228.55859375 C107.14570155 241.76178241 94.82276766 253.10351867 80.9375 262.125 C80.32358398 262.52412598 79.70966797 262.92325195 79.07714844 263.33447266 C59.37277671 275.84690337 35.27524444 283.55017871 11.9375 284.125 C11.11008301 284.15609863 10.28266602 284.18719727 9.43017578 284.21923828 C-28.37217939 285.56041651 -63.78905172 272.79569938 -91.8125 247.1875 C-117.39185775 223.164111 -136.14778969 189.27275508 -137.97265625 153.62109375 C-138.00230469 152.46738281 -138.03195313 151.31367187 -138.0625 150.125 C-138.08296387 149.41617676 -138.10342773 148.70735352 -138.12451172 147.97705078 C-138.76247457 122.95941677 -134.11870047 100.59165647 -123.0625 78.125 C-122.56878906 77.10921875 -122.07507813 76.0934375 -121.56640625 75.046875 C-114.98083294 62.2861607 -105.96640158 51.4151692 -96.0625 41.125 C-95.20978516 40.17753906 -95.20978516 40.17753906 -94.33984375 39.2109375 C-71.3810843 14.43191835 -33.15874507 -0.16294224 0 0 Z " fill="#B56F39" transform="translate(389.0625,607.875)"/>
<path d="M0 0 C0.33 0 0.66 0 1 0 C4.58165209 35.68316155 4.58165209 35.68316155 4 51 C4.99 51 5.98 51 7 51 C7 49.02 7 47.04 7 45 C7.66 45.33 8.32 45.66 9 46 C9.33 57.55 9.66 69.1 10 81 C11.32 81 12.64 81 14 81 C14.09087891 79.93458984 14.09087891 79.93458984 14.18359375 78.84765625 C14.26738281 77.92855469 14.35117187 77.00945312 14.4375 76.0625 C14.51871094 75.14597656 14.59992188 74.22945312 14.68359375 73.28515625 C15 71 15 71 16 70 C16.397493 67.65276034 16.74368723 65.29671452 17.0625 62.9375 C17.23910156 61.64714844 17.41570312 60.35679687 17.59765625 59.02734375 C17.73042969 58.02832031 17.86320312 57.02929688 18 56 C19.87501642 59.56095555 20.95330847 63.1122886 22 67 C23.65 67 25.3 67 27 67 C27.18175781 65.50146484 27.18175781 65.50146484 27.3671875 63.97265625 C27.53476562 62.68230469 27.70234375 61.39195312 27.875 60.0625 C28.03742188 58.77472656 28.19984375 57.48695313 28.3671875 56.16015625 C28.57601562 55.11730469 28.78484375 54.07445312 29 53 C29.66 52.67 30.32 52.34 31 52 C32.95031692 56.07723734 33.21581971 59.31692422 33.125 63.8125 C33.10695313 64.97394531 33.08890625 66.13539063 33.0703125 67.33203125 C33.04710937 68.21246094 33.02390625 69.09289062 33 70 C34.65 70 36.3 70 38 70 C38 68.35 38 66.7 38 65 C38.99 65.495 38.99 65.495 40 66 C40 67.65 40 69.3 40 71 C41.65 71 43.3 71 45 71 C45 69.02 45 67.04 45 65 C45.33 65 45.66 65 46 65 C46 66.98 46 68.96 46 71 C47.32 71 48.64 71 50 71 C50.66 68.03 51.32 65.06 52 62 C52.66 62.33 53.32 62.66 54 63 C54 65.64 54 68.28 54 71 C54.66 71 55.32 71 56 71 C56.495 69.02 56.495 69.02 57 67 C57 67.99 57 68.98 57 70 C58.32 70 59.64 70 61 70 C61.33 67.69 61.66 65.38 62 63 C62.33 63 62.66 63 63 63 C63 69.27 63 75.54 63 82 C64.98 82.33 66.96 82.66 69 83 C69.639375 83.4125 70.27875 83.825 70.9375 84.25 C73.20983994 85.33660402 73.20983994 85.33660402 76.25 83.6875 C76.84683594 83.39101563 77.44367188 83.09453125 78.05859375 82.7890625 C80.20903397 81.91504052 82.00443058 81.7216772 84.3125 81.5625 C85.529375 81.376875 86.74625 81.19125 88 81 C90.28964899 77.83953369 90.3764747 74.56072122 90.625 70.75 C90.69976562 69.67234375 90.77453125 68.5946875 90.8515625 67.484375 C90.92503906 66.25460937 90.92503906 66.25460937 91 65 C91.66 65 92.32 65 93 65 C93.495 63.515 93.495 63.515 94 62 C94.495 66.455 94.495 66.455 95 71 C98.63 70.67 102.26 70.34 106 70 C105.89300781 68.63746094 105.78601563 67.27492188 105.67578125 65.87109375 C105.55378753 64.05995623 105.43274401 62.24875453 105.3125 60.4375 C105.23966797 59.54224609 105.16683594 58.64699219 105.09179688 57.72460938 C104.72549941 51.84230296 105.32438415 48.24420707 108 43 C108.39764263 41.01178687 108.75455166 39.01267638 109 37 C111 38 111 38 111.78125 40.07421875 C112.0184375 40.93660156 112.255625 41.79898438 112.5 42.6875 C113.28537533 45.51405384 114.06615814 48.16017233 115.1875 50.875 C116.48353546 55.85975179 116.14917078 60.87846978 116 66 C116.66 65.67 117.32 65.34 118 65 C118.40729228 62.67843403 118.74438677 60.3431213 119 58 C120.32 58 121.64 58 123 58 C123.33 60.64 123.66 63.28 124 66 C124.12117187 64.97519531 124.24234375 63.95039062 124.3671875 62.89453125 C124.53610459 61.53381021 124.7053952 60.1731355 124.875 58.8125 C124.95363281 58.13896484 125.03226563 57.46542969 125.11328125 56.77148438 C125.60471413 52.89672516 126.35980901 49.54915277 128 46 C128.66 46 129.32 46 130 46 C131.49821059 49.37097383 132 51.20442119 132 55 C132.66 55 133.32 55 134 55 C134.02505615 55.6612085 134.0501123 56.32241699 134.07592773 57.00366211 C134.19153102 59.98182305 134.31441754 62.9596392 134.4375 65.9375 C134.47681641 66.97841797 134.51613281 68.01933594 134.55664062 69.09179688 C134.61948242 70.57583008 134.61948242 70.57583008 134.68359375 72.08984375 C134.72025146 73.00628662 134.75690918 73.92272949 134.79467773 74.86694336 C134.77003864 76.9820728 134.77003864 76.9820728 136 78 C136.51647184 81.51936103 136.7228875 85.07978772 137 88.625 C137.08757568 89.71989746 137.17515137 90.81479492 137.26538086 91.94287109 C138.05643099 102.49561251 138.40912489 113.05041912 138.65820312 123.62744141 C138.70557617 125.50181885 138.70557617 125.50181885 138.75390625 127.4140625 C138.77783447 128.5170166 138.8017627 129.6199707 138.82641602 130.75634766 C139.01157286 134.21625465 139.46310679 137.57848913 140 141 C139.28714844 141.01417969 138.57429687 141.02835938 137.83984375 141.04296875 C130.99613489 141.38377256 127.01171346 142.20618713 122 147 C120.96127313 149.66461093 120.96127313 149.66461093 121 152 C117.54092349 152.86476913 115.40764342 152.90870491 112 152 C111.01 152.33 110.02 152.66 109 153 C108.01 152.34 107.02 151.68 106 151 C106 150.01 106 149.02 106 148 C105.08476562 147.93941406 104.16953125 147.87882813 103.2265625 147.81640625 C102.03804688 147.73261719 100.84953125 147.64882813 99.625 147.5625 C98.44164062 147.48128906 97.25828125 147.40007812 96.0390625 147.31640625 C93 147 93 147 91 146 C91 145.34 91 144.68 91 144 C89.68 143.67 88.36 143.34 87 143 C86.67 140.36 86.34 137.72 86 135 C83.03 135.99 80.06 136.98 77 138 C77 127.77 77 117.54 77 107 C77.66 107 78.32 107 79 107 C78.67 106.2575 78.34 105.515 78 104.75 C77 102 77 102 77 98 C77.99 97.34 78.98 96.68 80 96 C79.67 94.35 79.34 92.7 79 91 C76.91617138 94.12574293 76.74110041 94.90452555 76.68115234 98.47143555 C76.66128265 99.37214279 76.64141296 100.27285004 76.62094116 101.20085144 C76.60938995 102.16968765 76.59783875 103.13852386 76.5859375 104.13671875 C76.56657135 105.13129593 76.5472052 106.12587311 76.5272522 107.15058899 C76.46743841 110.3294719 76.42106361 113.50839098 76.375 116.6875 C76.3368219 118.84181273 76.29777027 120.99611017 76.2578125 123.15039062 C76.16173549 128.43345809 76.07669326 133.71661753 76 139 C69.375 140.125 69.375 140.125 66 139 C64.72635386 128.01480208 64.89914784 117.04098375 65 106 C64.21625 105.855625 63.4325 105.71125 62.625 105.5625 C60 105 60 105 58 104 C58.33 104.66 58.66 105.32 59 106 C59.08471364 107.81341842 59.10721083 109.62994161 59.09765625 111.4453125 C59.09282227 113.05986328 59.09282227 113.05986328 59.08789062 114.70703125 C59.07532227 116.39892578 59.07532227 116.39892578 59.0625 118.125 C59.05798828 119.26066406 59.05347656 120.39632812 59.04882812 121.56640625 C59.03701615 124.37765638 59.02054507 127.1888023 59 130 C54.08245783 132.27458252 51.3339393 133.43105689 46 132 C45.67 130.68 45.34 129.36 45 128 C38.35009036 126.54267938 31.7857936 125.54863863 25 125 C25 124.34 25 123.68 25 123 C21.37 122.34 17.74 121.68 14 121 C14 118.03 14 115.06 14 112 C9.05 112.495 9.05 112.495 4 113 C4 108.38 4 103.76 4 99 C3.34 99 2.68 99 2 99 C2 103.62 2 108.24 2 113 C-1.88745702 112.50372889 -5.63014279 111.86950932 -9.4375 110.9375 C-13.72184281 109.93806497 -17.61410414 109.92168043 -22 110 C-23 109 -23 109 -23.1875 105.5 C-23.06341408 94.06341408 -23.06341408 94.06341408 -20 91 C-18.00041636 90.95919217 -15.99954746 90.95745644 -14 91 C-14.01160156 90.30132813 -14.02320313 89.60265625 -14.03515625 88.8828125 C-14.04417969 87.97273437 -14.05320312 87.06265625 -14.0625 86.125 C-14.07410156 85.22007812 -14.08570313 84.31515625 -14.09765625 83.3828125 C-14 81 -14 81 -13 79 C-11.77869416 72.00158998 -11.94057373 65.00080863 -12.12695312 57.9296875 C-12.19684576 52.86452692 -11.64102548 48.80080396 -10 44 C-9.67 44 -9.34 44 -9 44 C-8.67 45.98 -8.34 47.96 -8 50 C-5.6299098 37.75453397 -3.93285272 25.44007393 -2.35839844 13.07177734 C-2.19629883 11.81316895 -2.03419922 10.55456055 -1.8671875 9.2578125 C-1.72394043 8.1248877 -1.58069336 6.99196289 -1.43310547 5.82470703 C-1 3 -1 3 0 0 Z " fill="#3E3028" transform="translate(335,674)"/>
<path d="M0 0 C5.60096412 -0.07495628 11.20162711 -0.1289776 16.80297852 -0.16479492 C18.70276993 -0.17974885 20.60252764 -0.20011943 22.50219727 -0.22631836 C52.62989478 -0.63098325 52.62989478 -0.63098325 63 9 C68.48902972 16.06387669 69.04439198 24.35641303 68 33 C65.44322695 39.48482576 61.11139882 44.37540107 56 49 C56.56847656 49.268125 57.13695312 49.53625 57.72265625 49.8125 C64.91869233 53.46457841 70.50447542 58.16815126 73.9375 65.625 C77.18941496 75.82236295 75.57087109 88.72093573 71.1875 98.375 C66.81260786 106.29753194 58.73269678 108.58445347 50.50317383 111.04589844 C45.38801284 112.30294688 40.39792616 112.25138813 35.15625 112.1953125 C34.14655151 112.1924826 33.13685303 112.18965271 32.09655762 112.18673706 C28.89758033 112.1756153 25.6988915 112.15052563 22.5 112.125 C20.32031657 112.11495985 18.14062871 112.10583582 15.9609375 112.09765625 C10.64052795 112.07570225 5.32028459 112.04230518 0 112 C0 111.01 0 110.02 0 109 C4.455 108.505 4.455 108.505 9 108 C9 73.68 9 39.36 9 4 C6.03 3.67 3.06 3.34 0 3 C0 2.01 0 1.02 0 0 Z " fill="#40332B" transform="translate(715,657)"/>
<path d="M0 0 C6.38627691 -0.05098432 12.77250072 -0.08585232 19.15893555 -0.10986328 C21.32855185 -0.11988013 23.4981548 -0.13349742 25.66772461 -0.15087891 C28.79804801 -0.17531771 31.92819188 -0.18652657 35.05859375 -0.1953125 C36.01833603 -0.20563507 36.97807831 -0.21595764 37.96690369 -0.22659302 C48.22984313 -0.22827767 58.54125112 1.55861968 66.63671875 8.37890625 C72.94284986 15.32890661 73.68809206 23.18612819 73.46484375 32.1875 C72.10839304 43.31267561 64.81550753 51.50779584 57 59 C56.01 59.495 56.01 59.495 55 60 C55.56564115 63.65663771 56.506542 66.2255574 58.484375 69.34375 C59.00169189 70.16834717 59.51900879 70.99294434 60.05200195 71.8425293 C60.61234131 72.71949463 61.17268066 73.59645996 61.75 74.5 C62.92584167 76.37105578 64.10162099 78.24215075 65.27734375 80.11328125 C65.88690918 81.0770166 66.49647461 82.04075195 67.12451172 83.03369141 C70.20562241 87.90683575 73.26231677 92.79495847 76.3125 97.6875 C77.16569824 99.04101562 77.16569824 99.04101562 78.03613281 100.421875 C78.5565918 101.25589844 79.07705078 102.08992187 79.61328125 102.94921875 C80.07516846 103.68487061 80.53705566 104.42052246 81.01293945 105.1784668 C82 107 82 107 82 109 C84.64 109 87.28 109 90 109 C90 109.99 90 110.98 90 112 C75.22456193 113.49582613 75.22456193 113.49582613 70.734375 110.4765625 C68.84970776 107.7637839 67.45973871 104.96602945 66 102 C65.11953334 100.49688099 64.22364484 99.00273845 63.31640625 97.515625 C62.82068115 96.70295166 62.32495605 95.89027832 61.81420898 95.05297852 C60.76416236 93.33917525 59.71287556 91.62613128 58.66040039 89.91381836 C55.60268585 84.8739649 52.88871079 79.85838778 50.56982422 74.43481445 C48.49614814 70.67115195 45.65127086 67.38172304 43 64 C32.11 63.505 32.11 63.505 21 63 C21 78.18 21 93.36 21 109 C24.63 109 28.26 109 32 109 C32 109.99 32 110.98 32 112 C21.44 112 10.88 112 0 112 C0.33 111.01 0.66 110.02 1 109 C3.64 108.67 6.28 108.34 9 108 C9 73.68 9 39.36 9 4 C6.03 3.67 3.06 3.34 0 3 C0 2.01 0 1.02 0 0 Z " fill="#44362F" transform="translate(800,657)"/>
<path d="M0 0 C6.54700379 -0.05091755 13.09395605 -0.08582467 19.64111328 -0.10986328 C21.86606759 -0.11988997 24.09100883 -0.13351472 26.31591797 -0.15087891 C29.52314491 -0.17527392 32.73019685 -0.18651671 35.9375 -0.1953125 C37.41766602 -0.21079636 37.41766602 -0.21079636 38.92773438 -0.22659302 C48.45043935 -0.22812275 56.95822267 1.64778031 65 7 C70.6552472 12.74833769 73.28451159 18.60688515 73.375 26.6875 C73.14756563 38.8173333 67.69420973 48.21770857 59.21875 56.8046875 C55.53601695 60 55.53601695 60 53 60 C59.25842747 70.50466897 65.56636614 80.97652737 72 91.375 C72.53906982 92.24729248 73.07813965 93.11958496 73.63354492 94.01831055 C75.8231985 97.5482454 78.01841344 101.05537763 80.375 104.4765625 C82 107 82 107 82 109 C84.64 109 87.28 109 90 109 C90 109.99 90 110.98 90 112 C83.97233895 113.20553221 77.89894722 114.21416004 72 112 C66.98781389 107.52814611 64.36459229 100.8762929 61.48583984 94.93115234 C58.9711276 89.97031843 55.97269154 85.32054402 53 80.625 C51.9368369 78.90926488 50.87429981 77.19314164 49.8125 75.4765625 C48.13757117 72.78342961 46.42395035 70.13507156 44.625 67.5234375 C43 65 43 65 43 63 C35.74 63 28.48 63 21 63 C21 78.18 21 93.36 21 109 C24.63 109 28.26 109 32 109 C32 109.99 32 110.98 32 112 C21.44 112 10.88 112 0 112 C0 111.01 0 110.02 0 109 C4.455 108.505 4.455 108.505 9 108 C9 73.68 9 39.36 9 4 C6.03 3.67 3.06 3.34 0 3 C0 2.01 0 1.02 0 0 Z " fill="#43352E" transform="translate(1303,657)"/>
<path d="M0 0 C1.51400391 0.01740234 1.51400391 0.01740234 3.05859375 0.03515625 C4.07050781 0.04417969 5.08242187 0.05320312 6.125 0.0625 C6.90746094 0.07410156 7.68992187 0.08570313 8.49609375 0.09765625 C15.82729594 21.54305318 23.14701314 42.99234385 30.44509888 64.44903564 C31.18019429 66.6101803 31.91544106 68.77127348 32.65084839 70.93231201 C34.64697004 76.79851424 36.63911199 82.66603765 38.62628174 88.53527832 C39.44660901 90.95187921 40.27309642 93.3662853 41.10107422 95.78027344 C41.56495201 97.14382124 42.02866976 98.50742351 42.4921875 99.87109375 C42.88462646 101.01755371 43.27706543 102.16401367 43.68139648 103.34521484 C44.49609375 106.09765625 44.49609375 106.09765625 44.49609375 109.09765625 C48.12609375 109.09765625 51.75609375 109.09765625 55.49609375 109.09765625 C55.49609375 110.08765625 55.49609375 111.07765625 55.49609375 112.09765625 C44.93609375 112.09765625 34.37609375 112.09765625 23.49609375 112.09765625 C23.99109375 110.61265625 23.99109375 110.61265625 24.49609375 109.09765625 C27.13609375 108.76765625 29.77609375 108.43765625 32.49609375 108.09765625 C31.24131431 101.59561732 29.3679264 95.47441488 27.1730957 89.23999023 C26.18209235 86.38248 25.49609375 84.14773796 25.49609375 81.09765625 C8.66609375 81.09765625 -8.16390625 81.09765625 -25.50390625 81.09765625 C-26.82390625 86.70765625 -28.14390625 92.31765625 -29.50390625 98.09765625 C-30.76927921 101.78832739 -32.07254553 105.46813442 -33.50390625 109.09765625 C-27.56390625 109.09765625 -21.62390625 109.09765625 -15.50390625 109.09765625 C-15.50390625 110.08765625 -15.50390625 111.07765625 -15.50390625 112.09765625 C-26.06390625 112.09765625 -36.62390625 112.09765625 -47.50390625 112.09765625 C-47.17390625 111.10765625 -46.84390625 110.11765625 -46.50390625 109.09765625 C-43.86390625 108.76765625 -41.22390625 108.43765625 -38.50390625 108.09765625 C-35.85880064 101.24036248 -33.54470894 94.29254729 -31.2578125 87.30859375 C-30.85008606 86.06713593 -30.44235962 84.8256781 -30.02227783 83.54660034 C-28.92687784 80.21013113 -27.83396189 76.87285328 -26.74170303 73.53535461 C-26.06567672 71.47042788 -25.38883559 69.40576991 -24.71176147 67.34118652 C-18.63242377 48.800473 -12.62357522 30.23982568 -6.84399414 11.60302734 C-6.61887146 10.88051788 -6.39374878 10.15800842 -6.1618042 9.41360474 C-5.57235499 7.52039578 -4.98680612 5.62597364 -4.40161133 3.73144531 C-3.17194505 0.12371081 -3.17194505 0.12371081 0 0 Z " fill="#463831" transform="translate(1241.50390625,656.90234375)"/>
<path d="M0 0 C19.14002469 -2.0863417 19.14002469 -2.0863417 24.71484375 1.98046875 C26.37948586 4.77752045 27.69310225 7.59679661 28.92480469 10.60693359 C31.2072463 15.6869728 34.23446355 20.39755098 37.0625 25.1875 C38.37947647 27.47082827 39.69322772 29.75601952 41.00390625 32.04296875 C44.82582326 38.70115752 48.66188713 45.35113772 52.5 52 C53.74093704 54.15101189 54.98182226 56.30205367 56.22265625 58.453125 C58.47822597 62.36285765 60.73432104 66.27228606 62.99118042 70.18127441 C63.99291394 71.91636728 64.99452189 73.65153257 65.99609375 75.38671875 C67.23933719 77.54050668 68.48280572 79.69416471 69.7265625 81.84765625 C74.1734931 89.55233825 78.59126464 97.27342429 83 105 C83.1624165 71.65464263 82.70599581 38.33764812 82 5 C74.575 4.01 74.575 4.01 67 3 C67 2.01 67 1.02 67 0 C76.9 0 86.8 0 97 0 C97 0.99 97 1.98 97 3 C93.7 3 90.4 3 87 3 C87 38.97 87 74.94 87 112 C83.04 112 79.08 112 75 112 C74.07960938 110.4015625 73.15921875 108.803125 72.2109375 107.15625 C65.83402887 96.08843843 59.44529799 85.02818903 53 74 C46.90955135 63.57667393 40.865915 53.12697307 34.84375 42.6640625 C32.50539616 38.6034118 30.15780888 34.54840805 27.79798889 30.50021362 C26.38971716 28.08387745 24.98454427 25.66574595 23.57955933 23.24749756 C22.57955298 21.5293002 21.57509225 19.81369781 20.57055664 18.09814453 C19.97106201 17.06544434 19.37156738 16.03274414 18.75390625 14.96875 C17.95448608 13.59879883 17.95448608 13.59879883 17.13891602 12.20117188 C16 10 16 10 16 8 C15.34 8 14.68 8 14 8 C14 41.33 14 74.66 14 109 C19.94 109 25.88 109 32 109 C32 109.99 32 110.98 32 112 C21.44 112 10.88 112 0 112 C0 111.01 0 110.02 0 109 C4.455 108.505 4.455 108.505 9 108 C9 73.68 9 39.36 9 4 C6.03 3.67 3.06 3.34 0 3 C0 2.01 0 1.02 0 0 Z " fill="#4A3C35" transform="translate(1402,657)"/>
<path d="M0 0 C27 0 27 0 35 4 C41.92782761 11.07843256 42.97351174 18.06068163 43.25 27.6875 C43.13668833 35.91804749 42.14892701 43.86280523 36.9375 50.5 C25.44810807 60.71279283 15.62195223 58 0 58 C0 38.86 0 19.72 0 0 Z " fill="#F1EFE3" transform="translate(736,708)"/>
<path d="M0 0 C7.26 0 14.52 0 22 0 C40.80859375 32.6015625 40.80859375 32.6015625 42.65820312 35.80761719 C43.89510728 37.95154067 45.13208754 40.09542026 46.36914062 42.23925781 C49.50958117 47.68192559 52.64868634 53.12535545 55.78515625 58.5703125 C62.72011277 70.60592149 69.68077651 82.62563611 76.69750977 94.61376953 C77.24850342 95.55591309 77.79949707 96.49805664 78.3671875 97.46875 C78.85300293 98.29826172 79.33881836 99.12777344 79.83935547 99.98242188 C80.59758159 101.30046576 81.31997845 102.6399569 82 104 C82 71.33 82 38.66 82 5 C76.72 4.34 71.44 3.68 66 3 C66 2.01 66 1.02 66 0 C76.23 0 86.46 0 97 0 C97 0.99 97 1.98 97 3 C93.7 3.33 90.4 3.66 87 4 C86.67 39.64 86.34 75.28 86 112 C75 112 75 112 72.703125 110.0703125 C72.22359375 109.09835937 71.7440625 108.12640625 71.25 107.125 C70.61210343 105.92241941 69.97263059 104.72067429 69.33203125 103.51953125 C68.9757666 102.81779785 68.61950195 102.11606445 68.25244141 101.39306641 C66.24576978 97.5588763 64.0387609 93.84363663 61.8581543 90.10644531 C59.89156956 86.73372873 57.94347883 83.35092207 56 79.96484375 C47.24913448 64.7238561 38.47114878 49.49840891 29.625 34.3125 C29.09060303 33.39388184 28.55620605 32.47526367 28.00561523 31.52880859 C23.40490152 23.64287899 18.6984895 15.83081584 14 8 C14 41 14 74 14 108 C19.94 108.33 25.88 108.66 32 109 C32 109.99 32 110.98 32 112 C21.44 112 10.88 112 0 112 C0 111.01 0 110.02 0 109 C4.95 108.505 4.95 108.505 10 108 C9.67 73.68 9.34 39.36 9 4 C6.03 3.67 3.06 3.34 0 3 C0 2.01 0 1.02 0 0 Z " fill="#43352E" transform="translate(1556,657)"/>
<path d="M0 0 C25.6 0 25.6 0 33.8125 4.5625 C41.17647728 12.76807468 42.09514858 21.3103209 41.6171875 31.99609375 C40.65025876 42.73226664 34.90391386 49.94543383 28 58 C18.76 58 9.52 58 0 58 C0 38.86 0 19.72 0 0 Z " fill="#EEECE0" transform="translate(821,659)"/>
<path d="M0 0 C27.45327103 0 27.45327103 0 34.375 6.25 C35.00148438 6.79140625 35.62796875 7.3328125 36.2734375 7.890625 C40.88600273 13.52588568 41.5566507 19.15219152 41.5 26.1875 C41.49355469 27.02466553 41.48710938 27.86183105 41.48046875 28.72436523 C41.11297777 41.26862153 36.00025621 47.99967973 28 58 C18.76 58 9.52 58 0 58 C0 38.86 0 19.72 0 0 Z " fill="#EFEDE1" transform="translate(1324,659)"/>
<path d="M0 0 C22.44 0 44.88 0 68 0 C68.66602604 3.33013019 69.14933567 6.10823693 69.31640625 9.42578125 C69.35830078 10.22177734 69.40019531 11.01777344 69.44335938 11.83789062 C69.48267578 12.65451172 69.52199219 13.47113281 69.5625 14.3125 C69.60568359 15.14845703 69.64886719 15.98441406 69.69335938 16.84570312 C69.79885307 18.89696935 69.89987315 20.9484648 70 23 C68.68 23.33 67.36 23.66 66 24 C65.66280953 21.43795456 65.33012847 18.87545682 65 16.3125 C64.90460938 15.59126953 64.80921875 14.87003906 64.7109375 14.12695312 C64.62070313 13.42119141 64.53046875 12.71542969 64.4375 11.98828125 C64.35371094 11.34415283 64.26992187 10.70002441 64.18359375 10.03637695 C63.9729166 7.69959751 64 5.34625724 64 3 C49.81 3 35.62 3 21 3 C21 20.16 21 37.32 21 55 C33.87 54.67 46.74 54.34 60 54 C60.33 50.04 60.66 46.08 61 42 C61.99 42 62.98 42 64 42 C64 50.91 64 59.82 64 69 C63.34 69 62.68 69 62 69 C61.67 65.37 61.34 61.74 61 58 C47.8 58 34.6 58 21 58 C21 74.5 21 91 21 108 C36.84 108 52.68 108 69 108 C69.33 102.06 69.66 96.12 70 90 C70.33 87.69 70.66 85.38 71 83 C71.99 83 72.98 83 74 83 C74.20130191 92.70722546 73.90686833 102.46565837 72 112 C48.24 112 24.48 112 0 112 C0 111.01 0 110.02 0 109 C4.455 108.505 4.455 108.505 9 108 C9 73.68 9 39.36 9 4 C6.03 3.67 3.06 3.34 0 3 C0 2.01 0 1.02 0 0 Z " fill="#43362E" transform="translate(1115,657)"/>
<path d="M0 0 C22.77 0 45.54 0 69 0 C69.71386884 5.71095068 70.11264052 10.38426177 70.0625 16 C70.05798828 16.67933594 70.05347656 17.35867188 70.04882812 18.05859375 C70.0372283 19.70576874 70.01930199 21.35289726 70 23 C68.515 23.495 68.515 23.495 67 24 C66.01 13.605 66.01 13.605 65 3 C50.48 3 35.96 3 21 3 C21 20.16 21 37.32 21 55 C34.2 54.67 47.4 54.34 61 54 C61.33 50.04 61.66 46.08 62 42 C62.99 42 63.98 42 65 42 C65 50.91 65 59.82 65 69 C64.01 69 63.02 69 62 69 C62 65.37 62 61.74 62 58 C48.8 58 35.6 58 22 58 C22 74.5 22 91 22 108 C37.51 108 53.02 108 69 108 C69.66 102.06 70.32 96.12 71 90 C71.33 87.69 71.66 85.38 72 83 C72.99 83 73.98 83 75 83 C74.8594438 86.33357738 74.71158198 89.66679389 74.5625 93 C74.52318359 93.93457031 74.48386719 94.86914062 74.44335938 95.83203125 C74.40146484 96.75371094 74.35957031 97.67539062 74.31640625 98.625 C74.27974854 99.46289062 74.24309082 100.30078125 74.20532227 101.1640625 C73.94288855 104.78883069 73.45077397 108.39380828 73 112 C48.91 112 24.82 112 0 112 C0.33 111.01 0.66 110.02 1 109 C3.05078125 108.77213542 5.1015625 108.54427083 7.15234375 108.31640625 C9.01140229 108.18113386 9.01140229 108.18113386 10 107 C10.10069779 103.83923656 10.13614023 100.70027973 10.12939453 97.5390625 C10.13114685 96.54565857 10.13289917 95.55225464 10.13470459 94.52874756 C10.13912511 91.22748088 10.13618441 87.92626727 10.1328125 84.625 C10.13348548 82.34195953 10.13445546 80.05891913 10.13571167 77.77587891 C10.13718891 72.98404256 10.13503323 68.19222481 10.13037109 63.40039062 C10.1246738 57.24283365 10.12795266 51.08532026 10.13394356 44.92776489 C10.13754845 40.21134103 10.13641091 35.49492759 10.13381577 30.77850342 C10.1331463 28.5073852 10.1339756 26.23626606 10.13629532 23.96514893 C10.13882067 20.79705278 10.1349829 17.62902828 10.12939453 14.4609375 C10.13141876 13.51232849 10.13344299 12.56371948 10.13552856 11.58636475 C10.5445576 7.46810589 10.5445576 7.46810589 9 4 C7.48530552 3.76807135 5.96245438 3.58784762 4.4375 3.4375 C3.61121094 3.35371094 2.78492188 3.26992188 1.93359375 3.18359375 C1.29550781 3.12300781 0.65742187 3.06242188 0 3 C0 2.01 0 1.02 0 0 Z " fill="#43362F" transform="translate(899,657)"/>
<path d="M0 0 C3.02627621 3.02627621 2.05736497 10.98508797 2.06811523 14.92529297 C2.05992751 17.95048045 2.03544919 20.97500264 2 24 C0.515 24.495 0.515 24.495 -1 25 C-1.00773437 23.26363281 -1.00773437 23.26363281 -1.015625 21.4921875 C-1.26570842 14.61476302 -1.26570842 14.61476302 -3 8 C-6.61430861 4.70366576 -10.3245597 3.28977663 -15 2 C-15.62777344 1.79890625 -16.25554687 1.5978125 -16.90234375 1.390625 C-26.85140015 -0.46208569 -38.04471187 -0.05033571 -46.515625 5.7109375 C-58.15587617 15.08587033 -61.92910603 27.83827124 -64 42 C-64.18175781 43.10730469 -64.36351562 44.21460938 -64.55078125 45.35546875 C-66.58194374 61.83437833 -65.94526612 81.93945135 -56 96 C-51.01011529 101.6337408 -45.27514741 105.42901029 -37.67456055 106.25170898 C-35.19268859 106.33043868 -32.73224459 106.31147974 -30.25 106.25 C-29.43273438 106.24484375 -28.61546875 106.2396875 -27.7734375 106.234375 C-21.12013246 106.15146777 -14.66401691 105.55533474 -8 105 C-8 92.13 -8 79.26 -8 66 C-12.29 65.67 -16.58 65.34 -21 65 C-21 64.34 -21 63.68 -21 63 C-11.43 63 -1.86 63 8 63 C8 63.66 8 64.32 8 65 C6.02 65.33 4.04 65.66 2 66 C1.67 79.2 1.34 92.4 1 106 C-9.91272255 108.18254451 -19.6800723 109.24573333 -30.75 109.375 C-31.94882813 109.41238281 -33.14765625 109.44976563 -34.3828125 109.48828125 C-45.19661894 109.59383901 -54.77883304 106.69070252 -63.2578125 99.77734375 C-75.77080135 87.01185064 -76.29835737 68.74565514 -76.31689453 52.03955078 C-76.22565574 43.02718554 -75.74354794 35.31253657 -72 27 C-71.34644531 25.54013672 -71.34644531 25.54013672 -70.6796875 24.05078125 C-64.692743 12.06053448 -56.18434653 4.14700081 -43.75 -0.8125 C-29.65466087 -5.27602406 -14.15064961 -3.31441186 0 0 Z " fill="#42342D" transform="translate(1741,660)"/>
<path d="M0 0 C2.55353816 2.55353816 3.0975629 4.77767451 4.24658203 8.20629883 C4.46145264 8.84229507 4.67632324 9.47829132 4.89770508 10.13356018 C5.60721926 12.23937672 6.30783 14.34802882 7.0078125 16.45703125 C7.49789134 17.92203406 7.98828263 19.38693238 8.47897339 20.85173035 C9.50675403 23.92465481 10.53001767 26.9990387 11.55029297 30.07446289 C12.85701178 34.01178093 14.17586489 37.94490786 15.49829292 41.87697315 C16.51419482 44.90269296 17.52305338 47.93072562 18.52987289 50.95947838 C19.01319958 52.4102778 19.49883098 53.86031155 19.98682022 55.30954933 C20.66919473 57.33921427 21.34188093 59.37184693 22.01220703 61.40551758 C22.58939987 63.13853874 22.58939987 63.13853874 23.17825317 64.90657043 C24 68 24 68 24 73 C8.82 73 -6.36 73 -22 73 C-21.25524423 67.78670964 -20.39422186 63.61694386 -18.8125 58.6875 C-18.59327881 57.99873779 -18.37405762 57.30997559 -18.14819336 56.6003418 C-16.98061323 52.95406329 -15.77586256 49.32132002 -14.546875 45.6953125 C-11.20941808 35.84738655 -8.19592801 25.95173351 -5.39453125 15.9375 C-4.4093948 12.43229605 -3.41097016 8.9314939 -2.38671875 5.4375 C-2.14526123 4.61121094 -1.90380371 3.78492188 -1.6550293 2.93359375 C-1 1 -1 1 0 0 Z " fill="#EEECE0" transform="translate(1240,661)"/>
<path d="M0 0 C10.56 0 21.12 0 32 0 C32 0.99 32 1.98 32 3 C28.37 3 24.74 3 21 3 C21 37.98 21 72.96 21 109 C35.52 109 50.04 109 65 109 C65.99 100.42 66.98 91.84 68 83 C68.99 83 69.98 83 71 83 C71.32647178 92.95738936 70.07296347 101.80684703 69 112 C46.23 112 23.46 112 0 112 C0 111.01 0 110.02 0 109 C4.455 108.505 4.455 108.505 9 108 C9 73.68 9 39.36 9 4 C6.03 3.67 3.06 3.34 0 3 C0 2.01 0 1.02 0 0 Z " fill="#43362F" transform="translate(1034,657)"/>
<path d="M0 0 C24.31753555 0 24.31753555 0 30.0234375 4.6484375 C30.46945312 5.21820312 30.91546875 5.78796875 31.375 6.375 C31.83648438 6.93960938 32.29796875 7.50421875 32.7734375 8.0859375 C35.90167792 12.96758656 36.38635573 17.47809117 36.375 23.1875 C36.3747583 24.31599365 36.3747583 24.31599365 36.37451172 25.46728516 C36.22065533 32.9997701 34.16960076 38.74559887 30 45 C27.01904297 45.34057617 27.01904297 45.34057617 23.2421875 45.29296875 C22.02901855 45.28547607 20.81584961 45.2779834 19.56591797 45.27026367 C18.01791504 45.24295166 16.46991211 45.21563965 14.875 45.1875 C9.96625 45.125625 5.0575 45.06375 0 45 C0 30.15 0 15.3 0 0 Z " fill="#F1EFE3" transform="translate(736,660)"/>
<path d="M0 0 C10.56 0 21.12 0 32 0 C32 0.99 32 1.98 32 3 C28.37 3 24.74 3 21 3 C21 37.98 21 72.96 21 109 C35.52 108.67 50.04 108.34 65 108 C65.99 99.75 66.98 91.5 68 83 C69.485 83.495 69.485 83.495 71 84 C70.86189095 88.47944035 70.71322584 92.95846783 70.5625 97.4375 C70.52318359 98.71689453 70.48386719 99.99628906 70.44335938 101.31445312 C70.40146484 102.52939453 70.35957031 103.74433594 70.31640625 104.99609375 C70.27974854 106.12200928 70.24309082 107.2479248 70.20532227 108.40795898 C70 111 70 111 69 112 C66.85256451 112.09425595 64.70198974 112.11742648 62.55249023 112.11352539 C61.54277664 112.11374443 61.54277664 112.11374443 60.51266479 112.1139679 C58.27794216 112.11326878 56.0433019 112.10547652 53.80859375 112.09765625 C52.26302638 112.09579206 50.71745843 112.09436816 49.17189026 112.09336853 C45.09642923 112.0895434 41.02100363 112.07971317 36.94555664 112.06866455 C32.78988118 112.05845032 28.63420001 112.05387089 24.47851562 112.04882812 C16.31899413 112.03809089 8.15950147 112.02101454 0 112 C0 111.01 0 110.02 0 109 C0.63808594 108.93941406 1.27617188 108.87882813 1.93359375 108.81640625 C2.75988281 108.73261719 3.58617187 108.64882813 4.4375 108.5625 C5.26121094 108.48128906 6.08492187 108.40007812 6.93359375 108.31640625 C8.98662025 108.21069185 8.98662025 108.21069185 10 107 C10.10069779 103.83923656 10.13614023 100.70027973 10.12939453 97.5390625 C10.13114685 96.54565857 10.13289917 95.55225464 10.13470459 94.52874756 C10.13912511 91.22748088 10.13618441 87.92626727 10.1328125 84.625 C10.13348548 82.34195953 10.13445546 80.05891913 10.13571167 77.77587891 C10.13718891 72.98404256 10.13503323 68.19222481 10.13037109 63.40039062 C10.1246738 57.24283365 10.12795266 51.08532026 10.13394356 44.92776489 C10.13754845 40.21134103 10.13641091 35.49492759 10.13381577 30.77850342 C10.1331463 28.5073852 10.1339756 26.23626606 10.13629532 23.96514893 C10.13882067 20.79705278 10.1349829 17.62902828 10.12939453 14.4609375 C10.13141876 13.51232849 10.13344299 12.56371948 10.13552856 11.58636475 C10.5445576 7.46810589 10.5445576 7.46810589 9 4 C7.48530552 3.76807135 5.96245438 3.58784762 4.4375 3.4375 C3.61121094 3.35371094 2.78492188 3.26992188 1.93359375 3.18359375 C1.29550781 3.12300781 0.65742187 3.06242188 0 3 C0 2.01 0 1.02 0 0 Z " fill="#41332C" transform="translate(588,657)"/>
<path d="M0 0 C10.56 0 21.12 0 32 0 C32 0.99 32 1.98 32 3 C28.7 3 25.4 3 22 3 C22 37.98 22 72.96 22 109 C25.3 109 28.6 109 32 109 C32 109.99 32 110.98 32 112 C21.44 112 10.88 112 0 112 C0 111.01 0 110.02 0 109 C0.63808594 108.93941406 1.27617188 108.87882813 1.93359375 108.81640625 C2.75988281 108.73261719 3.58617187 108.64882813 4.4375 108.5625 C5.26121094 108.48128906 6.08492187 108.40007812 6.93359375 108.31640625 C8.98662025 108.21069185 8.98662025 108.21069185 10 107 C10.10069779 103.83923656 10.13614023 100.70027973 10.12939453 97.5390625 C10.13114685 96.54565857 10.13289917 95.55225464 10.13470459 94.52874756 C10.13912511 91.22748088 10.13618441 87.92626727 10.1328125 84.625 C10.13348548 82.34195953 10.13445546 80.05891913 10.13571167 77.77587891 C10.13718891 72.98404256 10.13503323 68.19222481 10.13037109 63.40039062 C10.1246738 57.24283365 10.12795266 51.08532026 10.13394356 44.92776489 C10.13754845 40.21134103 10.13641091 35.49492759 10.13381577 30.77850342 C10.1331463 28.5073852 10.1339756 26.23626606 10.13629532 23.96514893 C10.13882067 20.79705278 10.1349829 17.62902828 10.12939453 14.4609375 C10.13141876 13.51232849 10.13344299 12.56371948 10.13552856 11.58636475 C10.5445576 7.46810589 10.5445576 7.46810589 9 4 C7.48530552 3.76807135 5.96245438 3.58784762 4.4375 3.4375 C3.61121094 3.35371094 2.78492188 3.26992188 1.93359375 3.18359375 C1.29550781 3.12300781 0.65742187 3.06242188 0 3 C0 2.01 0 1.02 0 0 Z " fill="#453831" transform="translate(1511,657)"/>
<path d="M0 0 C10.56 0 21.12 0 32 0 C32 0.99 32 1.98 32 3 C28.37 3 24.74 3 21 3 C21 37.98 21 72.96 21 109 C24.63 109 28.26 109 32 109 C32 109.99 32 110.98 32 112 C21.44 112 10.88 112 0 112 C0 111.01 0 110.02 0 109 C2.97 109 5.94 109 9 109 C9 74.35 9 39.7 9 4 C6.03 3.67 3.06 3.34 0 3 C0 2.01 0 1.02 0 0 Z " fill="#40322B" transform="translate(670,657)"/>
<path d="M0 0 C5.60096412 -0.07495628 11.20162711 -0.1289776 16.80297852 -0.16479492 C18.70276993 -0.17974885 20.60252764 -0.20011943 22.50219727 -0.22631836 C52.62989478 -0.63098325 52.62989478 -0.63098325 63 9 C68.48902972 16.06387669 69.04439198 24.35641303 68 33 C65.44322695 39.48482576 61.11139882 44.37540107 56 49 C56.56847656 49.268125 57.13695312 49.53625 57.72265625 49.8125 C64.91869233 53.46457841 70.50447542 58.16815126 73.9375 65.625 C77.18941496 75.82236295 75.57087109 88.72093573 71.1875 98.375 C66.78983421 106.33877295 58.70416261 108.51392416 50.48828125 111.109375 C44.73061633 112.50488488 38.88623903 112.21265304 33 112.125 C31.84371094 112.11597656 30.68742188 112.10695313 29.49609375 112.09765625 C26.66384353 112.07424922 23.83203381 112.04145995 21 112 C21 111.67 21 111.34 21 111 C21.55872803 110.9906543 22.11745605 110.98130859 22.69311523 110.97167969 C25.27540323 110.91731012 27.85600598 110.83380291 30.4375 110.75 C31.31599609 110.73582031 32.19449219 110.72164062 33.09960938 110.70703125 C42.86383337 110.34672778 50.95486167 106.6126979 58.1875 100 C64.36368571 89.77734779 64.30750452 76.54085292 61.6875 65.1875 C59.79940777 59.17993382 56.34237992 56.06902676 51 53 C47.76134365 51.92044788 45.20844162 51.79558259 41.80078125 51.68359375 C40.59228516 51.64169922 39.38378906 51.59980469 38.13867188 51.55664062 C36.2447168 51.49766602 36.2447168 51.49766602 34.3125 51.4375 C33.03826172 51.39431641 31.76402344 51.35113281 30.45117188 51.30664062 C27.30089148 51.2004514 24.15053161 51.09840467 21 51 C21 50.01 21 49.02 21 48 C30.9 47.67 40.8 47.34 51 47 C55.96534026 37.06931948 58.15339012 26.25076107 55.28125 15.24609375 C52.90050991 10.18702106 49.57509763 7.08761887 44.484375 4.9375 C39.85774459 3.69266671 35.396681 3.53836711 30.625 3.375 C29.69816406 3.33632813 28.77132812 3.29765625 27.81640625 3.2578125 C25.5444623 3.16412409 23.27251404 3.07840652 21 3 C21 2.67 21 2.34 21 2 C14.07 1.67 7.14 1.34 0 1 C0 0.67 0 0.34 0 0 Z " fill="#473A33" transform="translate(715,657)"/>
<path d="M0 0 C3 2 3 2 5 4 C5.66 2.68 6.32 1.36 7 0 C7.99 0 8.98 0 10 0 C10.08746928 4.04152915 10.14054982 8.08281305 10.1875 12.125 C10.21263672 13.26710938 10.23777344 14.40921875 10.26367188 15.5859375 C10.32386705 22.48831705 10.05214566 27.31199067 5.5 32.8125 C2.41402262 35.25556542 -1.09988818 35.38766256 -4.92578125 35.359375 C-8.64151117 34.71559505 -10.44024663 32.68774104 -13 30 C-13 29.34 -13 28.68 -13 28 C-10.13275314 28.57344937 -9.1385485 28.8614515 -7 31 C-4.04230823 31.50010524 -4.04230823 31.50010524 -1 31 C0.99033641 29.34626504 0.99033641 29.34626504 2 27 C2 25.68 2 24.36 2 23 C1.67 23.33 1.34 23.66 1 24 C-3.55543464 24.57413536 -6.97819891 24.63047301 -10.9375 22.1875 C-14.42847111 18.48495488 -15.39489428 16.17566602 -15.25390625 11.0625 C-14.75390649 7.0009635 -13.00719758 4.11910842 -10.3125 1.125 C-6.90691105 -0.531773 -3.66641705 -0.68972202 0 0 Z " fill="#43362E" transform="translate(1173,808)"/>
<path d="M0 0 C2.31 0 4.62 0 7 0 C7 10.89 7 21.78 7 33 C5.68 32.67 4.36 32.34 3 32 C2.67 31.01 2.34 30.02 2 29 C1.360625 29.66 0.72125 30.32 0.0625 31 C-4.02828772 33.67153484 -7.2343617 33.85625806 -12 33 C-15.05898964 31.24270808 -16.513863 29.77339977 -18.375 26.8125 C-19.28646037 22.71092832 -19.16568456 19.04690489 -18 15 C-15.5 12 -15.5 12 -13 10 C-12.67 9.67 -12.34 9.34 -12 9 C-4.54135338 8.63909774 -4.54135338 8.63909774 -1 11 C-0.67 7.37 -0.34 3.74 0 0 Z " fill="#4B3E37" transform="translate(1147,799)"/>
<path d="M0 0 C2.31 0 4.62 0 7 0 C7.33 3.3 7.66 6.6 8 10 C8.66 9.67 9.32 9.34 10 9 C15.00404498 8.62233623 17.99885156 8.88799566 22 12 C25.37497274 15.78455681 25.56081037 18.58785452 25.4296875 23.51953125 C24.73257257 27.54378559 22.96066221 29.25081366 20 32 C16.81225917 33.59387042 13.46072041 33.52663137 10 33 C7.5 31 7.5 31 6 29 C5.3503125 29.99 5.3503125 29.99 4.6875 31 C4.130625 31.66 3.57375 32.32 3 33 C2.01 33 1.02 33 0 33 C0 22.11 0 11.22 0 0 Z " fill="#43362E" transform="translate(885,799)"/>
<path d="M0 0 C2.90948447 0.72323048 4.3334853 2.11156787 6.05859375 4.51171875 C6.49171875 3.85171875 6.92484375 3.19171875 7.37109375 2.51171875 C7.92796875 1.85171875 8.48484375 1.19171875 9.05859375 0.51171875 C10.04859375 0.51171875 11.03859375 0.51171875 12.05859375 0.51171875 C12.05859375 8.43171875 12.05859375 16.35171875 12.05859375 24.51171875 C8.72526042 24.51171875 5.39192708 24.51171875 2.05859375 24.51171875 C1.37023438 24.56972656 0.681875 24.62773438 -0.02734375 24.6875 C-4.4585558 24.95216284 -6.30463688 25.00256181 -9.94140625 22.19921875 C-12.92099564 18.19539551 -13.41944716 14.73876862 -13.33984375 9.875 C-12.74715315 6.35953122 -11.32934161 4.29229999 -8.859375 1.76953125 C-5.91432171 -0.16184789 -3.45540689 -0.26221469 0 0 Z " fill="#42352D" transform="translate(1509.94140625,807.48828125)"/>
<path d="M0 0 C4.41884299 2.16925019 7.05081082 4.45189192 9 9 C9.58496307 12.92760919 9.18285914 14.65459941 7.3125 18.1875 C4.35043267 21.79001432 2.36796059 23.64302102 -2.33203125 24.3515625 C-6.71657771 24.60135675 -9.97795127 24.5537931 -13.5 21.75 C-16.76988341 18.15312825 -17.7769698 16.47757508 -18.5 11.6875 C-17.83398123 6.77561156 -15.58855833 4.29106127 -12 1 C-8.28763586 -0.85618207 -4.05156912 -0.44809981 0 0 Z " fill="#473A32" transform="translate(1263,808)"/>
<path d="M0 0 C4.41884299 2.16925019 7.05081082 4.45189192 9 9 C9.58496307 12.92760919 9.18285914 14.65459941 7.3125 18.1875 C4.35458374 21.78496572 2.37198522 23.60063514 -2.296875 24.38671875 C-7.16721909 24.71878767 -10.24164226 24.35447899 -14.0625 21.1875 C-17.11290616 18.28064236 -17.87012912 15.96475508 -18.4375 11.75 C-17.8560227 6.76590888 -15.62718402 4.32648483 -12 1 C-8.28763586 -0.85618207 -4.05156912 -0.44809981 0 0 Z " fill="#473932" transform="translate(1042,808)"/>
<path d="M0 0 C4.87442777 1.75291922 7.74210294 4.3451565 10 9 C11.3986849 18.72779048 9.49048833 26.24905754 3.75 34.0625 C3.1725 34.701875 2.595 35.34125 2 36 C0.515 35.505 0.515 35.505 -1 35 C-0.53752904 31.83978176 0.01328109 28.9617192 1.0625 25.9375 C2.8804501 19.7812599 3.41634109 11.97472212 0.63671875 6.13671875 C-0.82205819 3.75942541 -0.82205819 3.75942541 -3.5 3.4375 C-6.07550686 3.77940639 -6.07550686 3.77940639 -7.61328125 5.64453125 C-9.35446794 8.60209625 -9.50207158 10.83811701 -9.6875 14.25 C-9.75324219 15.32765625 -9.81898438 16.4053125 -9.88671875 17.515625 C-9.92410156 18.33546875 -9.96148438 19.1553125 -10 20 C-7.03 20 -4.06 20 -1 20 C-1 20.99 -1 21.98 -1 23 C-3.97 23 -6.94 23 -10 23 C-10 25.31 -10 27.62 -10 30 C-12.64 30 -15.28 30 -18 30 C-18.11698258 26.79197767 -18.18750607 23.58450975 -18.25 20.375 C-18.28351562 19.47136719 -18.31703125 18.56773437 -18.3515625 17.63671875 C-18.45623977 10.46632548 -16.70859313 6.94075826 -11.8125 1.625 C-7.81312002 -0.68575288 -4.5128037 -0.76501296 0 0 Z " fill="#41332C" transform="translate(728,802)"/>
<path d="M0 0 C2.64 0 5.28 0 8 0 C8.33 4.29 8.66 8.58 9 13 C13.14457334 9.68434133 14.5507484 8.4838898 16.9375 4.25 C18.44140625 1.86328125 18.44140625 1.86328125 20 0 C23.375 -0.5625 23.375 -0.5625 26 0 C24.19063669 4.08477475 21.4931239 6.87363765 18.4609375 10.09765625 C16.69545953 11.99678847 16.69545953 11.99678847 17 15 C18.61107147 17.44537634 20.24994646 19.78371216 22 22.125 C27 28.89527027 27 28.89527027 27 30 C23.77480774 30.73910656 21.20079705 30.92016731 18 30 C15.46563383 27.3498506 13.586472 24.60041934 11.62890625 21.50390625 C10.2420684 18.91025521 10.2420684 18.91025521 8 18 C8 21.96 8 25.92 8 30 C5.36 30 2.72 30 0 30 C0 20.1 0 10.2 0 0 Z " fill="#42352E" transform="translate(967,802)"/>
<path d="M0 0 C2.31 0 4.62 0 7 0 C7.99 4.29 8.98 8.58 10 13 C10.33 13 10.66 13 11 13 C11.99 8.71 12.98 4.42 14 0 C15.98 0 17.96 0 20 0 C21.46939453 4.30322683 22.77443263 8.62297367 24 13 C26.48347827 6.64045603 26.48347827 6.64045603 28 0 C29.65 0 31.3 0 33 0 C29.57142857 16.85714286 29.57142857 16.85714286 26 24 C24.02 24 22.04 24 20 24 C18.68 20.04 17.36 16.08 16 12 C15.525625 13.794375 15.05125 15.58875 14.5625 17.4375 C13.125 22.875 13.125 22.875 12 24 C10.00041636 24.04080783 7.99954746 24.04254356 6 24 C4.38011566 18.70378241 2.80584809 13.39588604 1.3125 8.0625 C1.06113281 7.16660156 0.80976562 6.27070312 0.55078125 5.34765625 C0 3 0 3 0 0 Z " fill="#44372F" transform="translate(1053,808)"/>
<path d="M0 0 C3.1875 2.125 3.1875 2.125 5 5 C5.5625 8.0625 5.5625 8.0625 5 11 C2.76793569 13.84780619 1.45007001 14.84997666 -2 16 C-3.39439664 16.06665376 -4.79169875 16.08538199 -6.1875 16.0625 C-8.0746875 16.0315625 -8.0746875 16.0315625 -10 16 C-10 17.32 -10 18.64 -10 20 C-8.54257537 20.08096803 -7.08387193 20.13917774 -5.625 20.1875 C-4.40683594 20.23970703 -4.40683594 20.23970703 -3.1640625 20.29296875 C-2.44992187 20.19628906 -1.73578125 20.09960938 -1 20 C-0.34 19.01 0.32 18.02 1 17 C1.99 17.33 2.98 17.66 4 18 C2.63016497 21.16115776 2.0109362 21.9927092 -1 24 C-6.06116277 24.67377709 -10.54477914 24.80185639 -15.0625 22.3125 C-18.04804889 18.74910294 -18.87183312 16.17486307 -19.375 11.5625 C-18.92475941 7.28521437 -17.74347175 5.27692459 -15 2 C-10.3821051 -0.92500067 -5.27684587 -0.75718055 0 0 Z " fill="#483B33" transform="translate(1120,808)"/>
<path d="M0 0 C3.1875 1.5 3.1875 1.5 5 4 C5.66743036 7.01557171 5.45390256 8.82268211 5 12 C2.46433208 14.71054157 -0.29115953 15.91831547 -4.04296875 16.09765625 C-4.75066406 16.08605469 -5.45835938 16.07445312 -6.1875 16.0625 C-8.0746875 16.0315625 -8.0746875 16.0315625 -10 16 C-9.34 17.32 -8.68 18.64 -8 20 C-4.58343976 20.16677282 -4.58343976 20.16677282 -1 20 C-0.34 19.34 0.32 18.68 1 18 C3.125 18.375 3.125 18.375 5 19 C1.3161965 22.98249027 -1.0685793 24.40227349 -6.5625 24.625 C-10.54854569 24.44086202 -11.75095523 24.18297167 -15.0625 21.75 C-18.41745611 16.98812682 -19.56870642 14.06606614 -18.71484375 8.26171875 C-17.65011066 4.89297307 -16.04801232 3.12213104 -13.234375 1.03515625 C-8.89656498 -0.9744935 -4.63684998 -0.81448521 0 0 Z " fill="#4A3D36" transform="translate(1597,808)"/>
<path d="M0 0 C5.57608696 2.15217391 5.57608696 2.15217391 7 5 C7.45859873 10.38853503 7.45859873 10.38853503 5.6875 12.75 C2.28312498 15.27175927 0.5199676 16.24695558 -3.6875 16.125 C-4.49574219 16.10695313 -5.30398438 16.08890625 -6.13671875 16.0703125 C-6.75160156 16.04710937 -7.36648438 16.02390625 -8 16 C-7.67 17.32 -7.34 18.64 -7 20 C-5.72125 20.061875 -4.4425 20.12375 -3.125 20.1875 C-2.40570312 20.22230469 -1.68640625 20.25710938 -0.9453125 20.29296875 C-0.30335938 20.19628906 0.33859375 20.09960938 1 20 C1.66 19.01 2.32 18.02 3 17 C3.99 17.33 4.98 17.66 6 18 C4.63016497 21.16115776 4.0109362 21.9927092 1 24 C-4.06116277 24.67377709 -8.54477914 24.80185639 -13.0625 22.3125 C-16.04804889 18.74910294 -16.87183312 16.17486307 -17.375 11.5625 C-16.92715888 7.30800938 -15.6792268 5.2916215 -13 2 C-8.74253693 -0.83830872 -4.99804843 -0.5199833 0 0 Z " fill="#493C34" transform="translate(811,808)"/>
<path d="M0 0 C7.26 0 14.52 0 22 0 C22 1.32 22 2.64 22 4 C17.71 4 13.42 4 9 4 C9 6.97 9 9.94 9 13 C12.3 13 15.6 13 19 13 C19 14.32 19 15.64 19 17 C15.7 17 12.4 17 9 17 C9 19.97 9 22.94 9 26 C13.29 26 17.58 26 22 26 C22 27.32 22 28.64 22 30 C14.74 30 7.48 30 0 30 C0 20.1 0 10.2 0 0 Z " fill="#4D4039" transform="translate(1311,802)"/>
<path d="M0 0 C3.1875 1.5625 3.1875 1.5625 5 4 C5.5625 7.5 5.5625 7.5 5 11 C2.78136971 13.90717073 1.48055071 14.83981643 -2 16 C-3.39439664 16.06665376 -4.79169875 16.08538199 -6.1875 16.0625 C-8.0746875 16.0315625 -8.0746875 16.0315625 -10 16 C-9.34 17.32 -8.68 18.64 -8 20 C-4.58343976 20.16677282 -4.58343976 20.16677282 -1 20 C-0.34 19.34 0.32 18.68 1 18 C1.99 18 2.98 18 4 18 C2.63016497 21.16115776 2.0109362 21.9927092 -1 24 C-6.34572552 24.78613611 -10.6312017 25.00564773 -15.0625 21.75 C-18.41745611 16.98812682 -19.56870642 14.06606614 -18.71484375 8.26171875 C-17.65011066 4.89297307 -16.04801232 3.12213104 -13.234375 1.03515625 C-8.89963971 -0.97306901 -4.63357179 -0.82104893 0 0 Z " fill="#483B34" transform="translate(1378,808)"/>
<path d="M0 0 C3.02286884 1.38548155 4.66871425 2.66871425 7 5 C6.77358491 11.22641509 6.77358491 11.22641509 4.125 13.875 C-0.01588262 16.06723197 -3.37112896 16.16832258 -8 16 C-8.66 15.67 -9.32 15.34 -10 15 C-9.00864359 17.6273026 -9.00864359 17.6273026 -7 20 C-3.11590535 20.56495922 -0.93424177 20.57491801 2.4375 18.5 C2.953125 18.005 3.46875 17.51 4 17 C4.66 17.66 5.32 18.32 6 19 C2.35844157 22.76294371 0.502561 24.16808093 -4.75 24.375 C-8.49103938 24.3533442 -10.6566975 24.02882688 -13.5625 21.625 C-17.3057723 17.59378368 -17.39037018 14.90519941 -17.359375 9.55078125 C-16.78039966 5.44131496 -15.00085071 3.78650423 -12 1 C-8.31859602 -0.84070199 -4.02730403 -0.36784824 0 0 Z " fill="#463831" transform="translate(1487,808)"/>
<path d="M0 0 C1.2065625 0.0309375 1.2065625 0.0309375 2.4375 0.0625 C3.89452484 10.08612874 3.89452484 10.08612874 2.0625 14 C1.52625 14.680625 0.99 15.36125 0.4375 16.0625 C-0.25829454 18.25380534 -0.25829454 18.25380534 -0.5625 20.0625 C0.0975 20.0625 0.7575 20.0625 1.4375 20.0625 C1.7675 19.0725 2.0975 18.0825 2.4375 17.0625 C2.4375 26.9625 2.4375 36.8625 2.4375 47.0625 C-5.5625 51.0625 -5.5625 51.0625 -7.5625 51.0625 C-7.5625 40.8325 -7.5625 30.6025 -7.5625 20.0625 C-6.9025 20.0625 -6.2425 20.0625 -5.5625 20.0625 C-5.8925 19.32 -6.2225 18.5775 -6.5625 17.8125 C-7.5625 15.0625 -7.5625 15.0625 -7.5625 11.0625 C-6.5725 10.4025 -5.5825 9.7425 -4.5625 9.0625 C-4.8925 8.0725 -5.2225 7.0825 -5.5625 6.0625 C-3.57069672 0.08709016 -3.57069672 0.08709016 0 0 Z " fill="#744C2F" transform="translate(419.5625,760.9375)"/>
<path d="M0 0 C3.02286884 1.38548155 4.66871425 2.66871425 7 5 C7.4375 7.875 7.4375 7.875 7 11 C3.37436005 14.62563995 0.57616796 15.94469586 -4.5625 16.125 C-8 16 -8 16 -10 15 C-9.15602694 17.66250834 -9.15602694 17.66250834 -7 20 C-3.96183742 20.45787911 -1.05074215 20.28780586 2 20 C2.33 19.01 2.66 18.02 3 17 C3.99 17.66 4.98 18.32 6 19 C2.35844157 22.76294371 0.502561 24.16808093 -4.75 24.375 C-8.45461572 24.34819381 -10.65934334 24.03969262 -13.5625 21.6875 C-17.12891799 17.75529555 -17.39267639 14.39640714 -17.359375 9.29296875 C-16.74961638 5.40244364 -14.81165184 3.67776365 -12 1 C-8.31859602 -0.84070199 -4.02730403 -0.36784824 0 0 Z " fill="#463831" transform="translate(1205,808)"/>
<path d="M0 0 C5.57608696 2.15217391 5.57608696 2.15217391 7 5 C7.375 7.875 7.375 7.875 7 11 C4.14089743 14.41247726 1.58764084 15.24663664 -2.6875 15.75 C-4.80177361 15.90634965 -6.88040021 16 -9 16 C-8.34 17.32 -7.68 18.64 -7 20 C-5.72125 20.061875 -4.4425 20.12375 -3.125 20.1875 C-2.40570312 20.22230469 -1.68640625 20.25710938 -0.9453125 20.29296875 C-0.30335938 20.19628906 0.33859375 20.09960938 1 20 C1.66 19.01 2.32 18.02 3 17 C3.99 17.33 4.98 17.66 6 18 C4.63016497 21.16115776 4.0109362 21.9927092 1 24 C-4.06116277 24.67377709 -8.54477914 24.80185639 -13.0625 22.3125 C-16.04804889 18.74910294 -16.87183312 16.17486307 -17.375 11.5625 C-16.92715888 7.30800938 -15.6792268 5.2916215 -13 2 C-8.74253693 -0.83830872 -4.99804843 -0.5199833 0 0 Z " fill="#463932" transform="translate(943,808)"/>
<path d="M0 0 C0.99 0 1.98 0 3 0 C4.6875 2 4.6875 2 6 4 C6.495 3.34 6.99 2.68 7.5 2 C10.39504221 -0.31603377 12.35281487 -0.57686905 16.03125 -0.3984375 C19.10989729 0.22462207 20.85219078 1.78710565 23 4 C24.90319835 7.80639671 24.6073382 11.8635344 24 16 C22.31356436 20.18904713 20.25617755 24.09197817 18 28 C16.68 28 15.36 28 14 28 C14.144375 27.35675781 14.28875 26.71351563 14.4375 26.05078125 C15.96204689 18.62920229 16.21638343 11.56139878 16 4 C13.08365871 3.7497843 13.08365871 3.7497843 10 4 C8.0243438 6.96348429 7.73623141 7.68020373 7.5859375 11.01171875 C7.54726562 11.76904297 7.50859375 12.52636719 7.46875 13.30664062 C7.4378125 14.09232422 7.406875 14.87800781 7.375 15.6875 C7.33632812 16.48478516 7.29765625 17.28207031 7.2578125 18.10351562 C7.16367506 20.06863475 7.08075368 22.0342854 7 24 C4.69 24 2.38 24 0 24 C0 16.08 0 8.16 0 0 Z " fill="#43362F" transform="translate(1551,808)"/>
<path d="M0 0 C0.99 0 1.98 0 3 0 C4.6875 2 4.6875 2 6 4 C6.495 3.34 6.99 2.68 7.5 2 C10.39504221 -0.31603377 12.35281487 -0.57686905 16.03125 -0.3984375 C19.10989729 0.22462207 20.85219078 1.78710565 23 4 C25.12251145 8.2450229 24.52054461 13.23478683 23.2109375 17.67578125 C21.56869422 21.90675154 19.8435775 25.43941729 17 29 C16.01 28.67 15.02 28.34 14 28 C14.144375 27.33355469 14.28875 26.66710937 14.4375 25.98046875 C15.7664497 19.38186436 16.80785964 12.73612378 16 6 C15.34 5.34 14.68 4.68 14 4 C11.42459787 4.16507646 11.42459787 4.16507646 9 5 C7.3501993 8.29960141 7.61741639 11.99127884 7.4375 15.625 C7.37272461 16.82769531 7.37272461 16.82769531 7.30664062 18.0546875 C7.20048543 20.0362511 7.09973145 22.01810271 7 24 C4.69 24 2.38 24 0 24 C0 16.08 0 8.16 0 0 Z " fill="#44362F" transform="translate(997,808)"/>
<path d="M0 0 C2.97 0 5.94 0 9 0 C9 8.58 9 17.16 9 26 C13.29 26 17.58 26 22 26 C22 27.32 22 28.64 22 30 C14.74 30 7.48 30 0 30 C0 20.1 0 10.2 0 0 Z " fill="#4E4139" transform="translate(1447,802)"/>
<path d="M0 0 C0.99 0.66 1.98 1.32 3 2 C1.25 6.875 1.25 6.875 -1 8 C-1.33 6.68 -1.66 5.36 -2 4 C-3.98 4 -5.96 4 -8 4 C-8.66 6.64 -9.32 9.28 -10 12 C-7.69 12 -5.38 12 -3 12 C-3 12.99 -3 13.98 -3 15 C-5.31 15 -7.62 15 -10 15 C-10 21.93 -10 28.86 -10 36 C-12.31 36 -14.62 36 -17 36 C-17 29.07 -17 22.14 -17 15 C-18.32 15 -19.64 15 -21 15 C-21 14.01 -21 13.02 -21 12 C-19.68 12 -18.36 12 -17 12 C-16.938125 10.948125 -16.87625 9.89625 -16.8125 8.8125 C-14.8254119 -0.51152879 -8.38934642 -1.23372741 0 0 Z " fill="#42352E" transform="translate(1247,796)"/>
<path d="M0 0 C3.625 1.5 3.625 1.5 6 3 C6 3.66 6 4.32 6 5 C4.02 5.99 4.02 5.99 2 7 C1.649375 6.505 1.29875 6.01 0.9375 5.5 C-1.94374289 3.26936034 -4.47009026 3.80019379 -8 4 C-8 4.99 -8 5.98 -8 7 C-7.16855469 7.25394531 -6.33710937 7.50789062 -5.48046875 7.76953125 C-4.39378906 8.11371094 -3.30710937 8.45789063 -2.1875 8.8125 C-0.56908203 9.31716797 -0.56908203 9.31716797 1.08203125 9.83203125 C3.844065 10.93758425 5.30300344 11.58847857 7 14 C7 17.87428794 6.86830437 20.10275216 4.125 22.9375 C-1.63026384 24.89428971 -7.64905985 25.10632477 -13.1875 22.5 C-13.785625 22.005 -14.38375 21.51 -15 21 C-13.68 19.68 -12.36 18.36 -11 17 C-10.484375 17.495 -9.96875 17.99 -9.4375 18.5 C-6.19319983 20.49649241 -3.73782666 20.21564385 0 20 C0 19.01 0 18.02 0 17 C-1.24716797 16.61908203 -1.24716797 16.61908203 -2.51953125 16.23046875 C-4.14955078 15.71419922 -4.14955078 15.71419922 -5.8125 15.1875 C-7.43091797 14.68283203 -7.43091797 14.68283203 -9.08203125 14.16796875 C-11.84271583 13.06295578 -13.30726793 12.4139313 -15 10 C-14.89036827 3.86062323 -14.89036827 3.86062323 -12.24609375 1.3046875 C-8.3545494 -0.95579218 -4.36730659 -0.53561307 0 0 Z " fill="#493C35" transform="translate(861,808)"/>
<path d="M0 0 C3.625 1.5 3.625 1.5 6 3 C5.67 3.99 5.34 4.98 5 6 C4.01 6.33 3.02 6.66 2 7 C1.649375 6.505 1.29875 6.01 0.9375 5.5 C-1.94374289 3.26936034 -4.47009026 3.80019379 -8 4 C-8 4.99 -8 5.98 -8 7 C-7.16855469 7.25394531 -6.33710937 7.50789062 -5.48046875 7.76953125 C-4.39378906 8.11371094 -3.30710937 8.45789063 -2.1875 8.8125 C-0.56908203 9.31716797 -0.56908203 9.31716797 1.08203125 9.83203125 C3.84271583 10.93704422 5.30726793 11.5860687 7 14 C6.89094659 20.10699103 6.89094659 20.10699103 4.3125 22.69140625 C-0.08709914 25.18104428 -5.10706896 24.63414522 -10 24 C-13.25 22 -13.25 22 -15 20 C-13.625 18.5 -13.625 18.5 -12 17 C-11.34 17 -10.68 17 -10 17 C-9.608125 17.495 -9.21625 17.99 -8.8125 18.5 C-6.03989283 20.79457145 -3.4681874 20.19631249 0 20 C0 19.01 0 18.02 0 17 C-0.84304688 16.73445312 -1.68609375 16.46890625 -2.5546875 16.1953125 C-3.65039062 15.84210937 -4.74609375 15.48890625 -5.875 15.125 C-7.51082031 14.60292969 -7.51082031 14.60292969 -9.1796875 14.0703125 C-12 13 -12 13 -14 11 C-14.41652031 7.25131724 -14.4979164 4.88266999 -12.625 1.5625 C-8.5424492 -0.86758976 -4.63133113 -0.63353114 0 0 Z " fill="#483B34" transform="translate(836,808)"/>
<path d="M0 0 C1.60615266 4.01538165 0.23201701 7.01406263 -1 11 C-1 11.99 -1 12.98 -1 14 C-1 18.33333333 -1 22.66666667 -1 27 C-5.95 27.495 -5.95 27.495 -11 28 C-11 23.38 -11 18.76 -11 14 C-11.66 14 -12.32 14 -13 14 C-13.25 6.375 -13.25 6.375 -11 3 C-10.34 3 -9.68 3 -9 3 C-8.67 2.01 -8.34 1.02 -8 0 C-5.13822943 -1.43088528 -3.06624227 -0.59991697 0 0 Z " fill="#6E482E" transform="translate(350,759)"/>
<path d="M0 0 C0 0.99 0 1.98 0 3 C-0.66 3 -1.32 3 -2 3 C-2.33 3.99 -2.66 4.98 -3 6 C-3 4.35 -3 2.7 -3 1 C-3.66 1 -4.32 1 -5 1 C-5 2.98 -5 4.96 -5 7 C-4.34 7 -3.68 7 -3 7 C-3 7.66 -3 8.32 -3 9 C-3.66 9 -4.32 9 -5 9 C-4.79375 9.886875 -4.5875 10.77375 -4.375 11.6875 C-3.97449761 15.2252711 -4.43316484 16.86632967 -6 20 C-7.98 19.34 -9.96 18.68 -12 18 C-11.67 18.66 -11.34 19.32 -11 20 C-10.91528636 21.81341842 -10.89278917 23.62994161 -10.90234375 25.4453125 C-10.90556641 26.52167969 -10.90878906 27.59804688 -10.91210938 28.70703125 C-10.92048828 29.83496094 -10.92886719 30.96289062 -10.9375 32.125 C-10.94201172 33.26066406 -10.94652344 34.39632812 -10.95117188 35.56640625 C-10.96298385 38.37765638 -10.97945493 41.1888023 -11 44 C-12.32 44.66 -13.64 45.32 -15 46 C-15 33.13 -15 20.26 -15 7 C-13 7 -11 7 -9 7 C-10.32 6.01 -11.64 5.02 -13 4 C-8.62340682 -0.37659318 -5.88808394 -0.39919213 0 0 Z " fill="#935C33" transform="translate(405,760)"/>
<path d="M0 0 C2.31 0 4.62 0 7 0 C9.31 4.62 11.62 9.24 14 14 C15.65 9.38 17.3 4.76 19 0 C20.65 0 22.3 0 24 0 C21.94407701 6.63942189 19.38382952 12.9303208 16.5 19.25 C16.10941406 20.12140625 15.71882813 20.9928125 15.31640625 21.890625 C11.13119644 31.13472479 11.13119644 31.13472479 9 34 C8.01 34 7.02 34 6 34 C6.51410416 31.68653128 7.12696729 29.7249042 8.125 27.5625 C10.11865134 21.72394965 6.36845236 16.07326565 3.9375 10.8125 C3.19326872 9.19554622 2.45221889 7.57712311 1.71484375 5.95703125 C1.38605225 5.24522705 1.05726074 4.53342285 0.71850586 3.80004883 C0 2 0 2 0 0 Z " fill="#473A33" transform="translate(1408,808)"/>
<path d="M0 0 C2.31 0 4.62 0 7 0 C8.98 5.61 10.96 11.22 13 17 C14.98 11.39 16.96 5.78 19 0 C20.65 0 22.3 0 24 0 C21.41874331 8.17397951 18.22988119 16.06640834 15 24 C12.69 24 10.38 24 8 24 C6.66147204 20.37689672 5.33006282 16.75121856 4 13.125 C3.6184375 12.09246094 3.236875 11.05992187 2.84375 9.99609375 C2.4828125 9.00996094 2.121875 8.02382813 1.75 7.0078125 C1.41484375 6.09660645 1.0796875 5.18540039 0.734375 4.24658203 C0 2 0 2 0 0 Z " fill="#473932" transform="translate(1334,808)"/>
<path d="M0 0 C3.0625 1.3125 3.0625 1.3125 5 3 C5.33 3.99 5.66 4.98 6 6 C4.68 6 3.36 6 2 6 C2 5.34 2 4.68 2 4 C-1.3 4 -4.6 4 -8 4 C-8.78654468 7.14617873 -9.16073416 9.39877817 -9.1875 12.5625 C-9.20167969 13.32691406 -9.21585938 14.09132813 -9.23046875 14.87890625 C-9.1323375 17.30153503 -9.1323375 17.30153503 -7 20 C-4.79274927 20.36362818 -4.79274927 20.36362818 -2.375 20.1875 C-1.55773437 20.16042969 -0.74046875 20.13335938 0.1015625 20.10546875 C1.04128906 20.05326172 1.04128906 20.05326172 2 20 C2.33 19.01 2.66 18.02 3 17 C3.99 17.66 4.98 18.32 6 19 C3.67699637 22.20414294 2.36005459 23.75327346 -1.60546875 24.47265625 C-6.06409602 24.61104819 -9.11407416 24.48816322 -13.0625 22.3125 C-16.04804889 18.74910294 -16.87183312 16.17486307 -17.375 11.5625 C-16.92715888 7.30800938 -15.6792268 5.2916215 -13 2 C-8.7493471 -0.8337686 -4.98960532 -0.52522161 0 0 Z " fill="#453730" transform="translate(785,808)"/>
<path d="M0 0 C3.0625 1.3125 3.0625 1.3125 5 3 C5.33 3.99 5.66 4.98 6 6 C4.68 6 3.36 6 2 6 C2 5.34 2 4.68 2 4 C-1.3 4 -4.6 4 -8 4 C-8.78654468 7.14617873 -9.16073416 9.39877817 -9.1875 12.5625 C-9.20167969 13.32691406 -9.21585938 14.09132813 -9.23046875 14.87890625 C-9.1323375 17.30153503 -9.1323375 17.30153503 -7 20 C-4.79274927 20.36362818 -4.79274927 20.36362818 -2.375 20.1875 C-1.55773437 20.16042969 -0.74046875 20.13335938 0.1015625 20.10546875 C1.04128906 20.05326172 1.04128906 20.05326172 2 20 C2.33 19.01 2.66 18.02 3 17 C3.99 17.66 4.98 18.32 6 19 C3.67699637 22.20414294 2.36005459 23.75327346 -1.60546875 24.47265625 C-6.06409602 24.61104819 -9.11407416 24.48816322 -13.0625 22.3125 C-16.04804889 18.74910294 -16.87183312 16.17486307 -17.375 11.5625 C-16.92715888 7.30800938 -15.6792268 5.2916215 -13 2 C-8.7493471 -0.8337686 -4.98960532 -0.52522161 0 0 Z " fill="#453830" transform="translate(759,808)"/>
<path d="M0 0 C4 1 4 1 5.73168945 3.14916992 C7.23751297 6.53386699 7.34360677 8.9167058 7.29296875 12.61328125 C7.28330078 13.86044922 7.27363281 15.10761719 7.26367188 16.39257812 C7.23853516 17.68615234 7.21339844 18.97972656 7.1875 20.3125 C7.17396484 21.62541016 7.16042969 22.93832031 7.14648438 24.29101562 C7.11117443 27.52776077 7.0618528 30.76367105 7 34 C4.69 34 2.38 34 0 34 C0 22.78 0 11.56 0 0 Z " fill="#44362F" transform="translate(1090,798)"/>
<path d="M0 0 C3.02627621 3.02627621 2.05736497 10.98508797 2.06811523 14.92529297 C2.05992751 17.95048045 2.03544919 20.97500264 2 24 C1.01 24.33 0.02 24.66 -1 25 C-1.00773437 23.26363281 -1.00773437 23.26363281 -1.015625 21.4921875 C-1.26570842 14.61476302 -1.26570842 14.61476302 -3 8 C-6.61430861 4.70366576 -10.3245597 3.28977663 -15 2 C-15.94045166 1.73038452 -15.94045166 1.73038452 -16.89990234 1.45532227 C-19.17976085 0.96102604 -21.21550916 0.88659128 -23.546875 0.90234375 C-24.39121094 0.90556641 -25.23554687 0.90878906 -26.10546875 0.91210938 C-26.97816406 0.92048828 -27.85085938 0.92886719 -28.75 0.9375 C-29.63816406 0.94201172 -30.52632812 0.94652344 -31.44140625 0.95117188 C-33.62767329 0.962926 -35.81380179 0.97935751 -38 1 C-38 0.34 -38 -0.32 -38 -1 C-38.66 -1.33 -39.32 -1.66 -40 -2 C-26.67027523 -4.57058456 -13.10932085 -3.0705084 0 0 Z " fill="#473A33" transform="translate(1741,660)"/>
<path d="M0 0 C4 1 4 1 5.73168945 3.14916992 C7.23751297 6.53386699 7.34360677 8.9167058 7.29296875 12.61328125 C7.28330078 13.86044922 7.27363281 15.10761719 7.26367188 16.39257812 C7.23853516 17.68615234 7.21339844 18.97972656 7.1875 20.3125 C7.17396484 21.62541016 7.16042969 22.93832031 7.14648438 24.29101562 C7.11117443 27.52776077 7.0618528 30.76367105 7 34 C4.69 34 2.38 34 0 34 C0 22.78 0 11.56 0 0 Z " fill="#483B34" transform="translate(915,798)"/>
<path d="M0 0 C0.99 0 1.98 0 3 0 C4.6875 2 4.6875 2 6 4 C6.495 3.34 6.99 2.68 7.5 2 C10.16356811 -0.13085449 10.8668508 -0.33679357 14.125 -0.4375 C15.40375 -0.293125 16.6825 -0.14875 18 0 C18.66 0.99 19.32 1.98 20 3 C19.01 4.65 18.02 6.3 17 8 C16.4225 7.319375 15.845 6.63875 15.25 5.9375 C13.21734735 3.7334804 13.21734735 3.7334804 10.8125 4.125 C8.81439869 4.86199248 8.81439869 4.86199248 8 7 C7.76725791 9.87910588 7.58027243 12.74146495 7.4375 15.625 C7.37272461 16.82769531 7.37272461 16.82769531 7.30664062 18.0546875 C7.20048543 20.0362511 7.09973145 22.01810271 7 24 C4.69 24 2.38 24 0 24 C0 16.08 0 8.16 0 0 Z " fill="#3F322B" transform="translate(1276,808)"/>
<path d="M0 0 C0.99 0 1.98 0 3 0 C3.66 1.32 4.32 2.64 5 4 C5.680625 3.34 6.36125 2.68 7.0625 2 C10.70295227 -0.4786058 12.67648012 -0.56045628 17 0 C18.9375 1.5 18.9375 1.5 20 3 C18.68 4.65 17.36 6.3 16 8 C15.01 6.68 14.02 5.36 13 4 C10.24358584 4.49756092 10.24358584 4.49756092 8 6 C7.84417697 7.34015221 7.74955858 8.68758903 7.68359375 10.03515625 C7.64169922 10.84404297 7.59980469 11.65292969 7.55664062 12.48632812 C7.51732422 13.33646484 7.47800781 14.18660156 7.4375 15.0625 C7.39431641 15.91650391 7.35113281 16.77050781 7.30664062 17.65039062 C7.20023298 19.76672037 7.09958269 21.88333813 7 24 C4.69 24 2.38 24 0 24 C0 16.08 0 8.16 0 0 Z " fill="#43352E" transform="translate(1607,808)"/>
<path d="M0 0 C0.99 0 1.98 0 3 0 C3.66 1.32 4.32 2.64 5 4 C5.680625 3.34 6.36125 2.68 7.0625 2 C10.70295227 -0.4786058 12.67648012 -0.56045628 17 0 C18.9375 1.5 18.9375 1.5 20 3 C18.68 4.65 17.36 6.3 16 8 C15.01 6.68 14.02 5.36 13 4 C10.24358584 4.49756092 10.24358584 4.49756092 8 6 C7.84417697 7.34015221 7.74955858 8.68758903 7.68359375 10.03515625 C7.64169922 10.84404297 7.59980469 11.65292969 7.55664062 12.48632812 C7.51732422 13.33646484 7.47800781 14.18660156 7.4375 15.0625 C7.39431641 15.91650391 7.35113281 16.77050781 7.30664062 17.65039062 C7.20023298 19.76672037 7.09958269 21.88333813 7 24 C4.69 24 2.38 24 0 24 C0 16.08 0 8.16 0 0 Z " fill="#453730" transform="translate(1528,808)"/>
<path d="M0 0 C0.99 0 1.98 0 3 0 C3.66 1.32 4.32 2.64 5 4 C5.680625 3.34 6.36125 2.68 7.0625 2 C10.70295227 -0.4786058 12.67648012 -0.56045628 17 0 C18.9375 1.5 18.9375 1.5 20 3 C18.68 4.65 17.36 6.3 16 8 C15.01 6.68 14.02 5.36 13 4 C10.24358584 4.49756092 10.24358584 4.49756092 8 6 C7.84417697 7.34015221 7.74955858 8.68758903 7.68359375 10.03515625 C7.64169922 10.84404297 7.59980469 11.65292969 7.55664062 12.48632812 C7.51732422 13.33646484 7.47800781 14.18660156 7.4375 15.0625 C7.39431641 15.91650391 7.35113281 16.77050781 7.30664062 17.65039062 C7.20023298 19.76672037 7.09958269 21.88333813 7 24 C4.69 24 2.38 24 0 24 C0 16.08 0 8.16 0 0 Z " fill="#453830" transform="translate(1388,808)"/>
<path d="M0 0 C1.7015625 0.2475 1.7015625 0.2475 3.4375 0.5 C5.71697698 3.91921547 5.76263105 5.40310177 5.8125 9.4375 C5.84085938 10.47777344 5.86921875 11.51804687 5.8984375 12.58984375 C5.3316428 16.1683357 4.28497618 17.32925491 1.4375 19.5 C-1.125 19.625 -1.125 19.625 -3.5625 18.5 C-6.53200326 14.19934011 -7.12500836 10.65632662 -6.5625 5.5 C-5.04899044 1.31559122 -4.48055367 0.62884964 0 0 Z " fill="#E9E7DB" transform="translate(1258.5625,810.5)"/>
<path d="M0 0 C1.7015625 0.2475 1.7015625 0.2475 3.4375 0.5 C5.71697698 3.91921547 5.76263105 5.40310177 5.8125 9.4375 C5.84085938 10.47777344 5.86921875 11.51804687 5.8984375 12.58984375 C5.3316428 16.1683357 4.28497618 17.32925491 1.4375 19.5 C-1.125 19.625 -1.125 19.625 -3.5625 18.5 C-6.53200326 14.19934011 -7.12500836 10.65632662 -6.5625 5.5 C-5.04899044 1.31559122 -4.48055367 0.62884964 0 0 Z " fill="#E9E7DB" transform="translate(1037.5625,810.5)"/>
<path d="M0 0 C0.33 0.66 0.66 1.32 1 2 C1.66 2.33 2.32 2.66 3 3 C1.53912666 7.39996548 0.07313128 11.79775233 -1.4296875 16.18359375 C-3.98307432 23.67580276 -6.38189439 31.16765757 -8.4375 38.8125 C-10.33202955 45.77647035 -12.37149955 52.68576093 -14.5625 59.5625 C-14.84343506 60.48587158 -15.12437012 61.40924316 -15.41381836 62.3605957 C-15.82966187 63.63809692 -15.82966187 63.63809692 -16.25390625 64.94140625 C-16.49439697 65.70138916 -16.7348877 66.46137207 -16.98266602 67.24438477 C-18 69 -18 69 -20.06358337 69.60972595 C-20.70260086 69.73851639 -21.34161835 69.86730682 -22 70 C-19.88966204 61.90948502 -17.43061005 53.97182684 -14.8046875 46.03515625 C-14.41177521 44.8394249 -14.01886292 43.64369354 -13.61404419 42.41172791 C-12.5806759 39.26782624 -11.54510652 36.12466268 -10.50817871 32.98193359 C-9.04118619 28.53485621 -7.5770836 24.08683031 -6.11453247 19.63829041 C-5.33813133 17.27724103 -4.56025145 14.91667729 -3.7807312 12.55665588 C-3.43011627 11.49132126 -3.07950134 10.42598663 -2.71826172 9.32836914 C-2.40976288 8.39336075 -2.10126404 7.45835236 -1.78341675 6.49501038 C-1.10706496 4.34097839 -0.51738742 2.19677511 0 0 Z " fill="#4F433B" transform="translate(1238,658)"/>
<path d="M0 0 C2.5 0.5 2.5 0.5 4.3125 1.9375 C6.09792971 5.79026937 6.04212836 9.3263543 5.5 13.5 C4.3125 16.5625 4.3125 16.5625 2.5 18.5 C0 19.0625 0 19.0625 -2.5 18.5 C-5.27863689 15.56847161 -5.91158233 13.49966791 -5.875 9.5 C-5.88273437 8.654375 -5.89046875 7.80875 -5.8984375 6.9375 C-5.26964523 3.0907708 -3.90188021 0.78037604 0 0 Z " fill="#E9E7DB" transform="translate(1170.5,810.5)"/>
<path d="M0 0 C2.31 0 4.62 0 7 0 C7 7.92 7 15.84 7 24 C4.69 24 2.38 24 0 24 C0 16.08 0 8.16 0 0 Z " fill="#41342C" transform="translate(872,808)"/>
<path d="M0 0 C2.13749925 3.20624887 2.29574999 4.22458103 2.3125 7.9375 C2.33763672 9.21947266 2.33763672 9.21947266 2.36328125 10.52734375 C1.92809899 13.48939075 1.05074203 14.84647615 -1 17 C-3.5 17.5625 -3.5 17.5625 -6 17 C-8.58439929 14.14824906 -9.20062061 11.67846709 -9.3125 7.9375 C-8.89098117 2.62636274 -8.89098117 2.62636274 -7 0 C-4.27584084 -1.36207958 -2.87220643 -0.86166193 0 0 Z " fill="#EBE9DD" transform="translate(901,812)"/>
<path d="M0 0 C2.875 0.3125 2.875 0.3125 6 1 C8.47310494 4.70965741 8.55899802 7.69814567 8 12 C6.5 15.5 6.5 15.5 5 18 C2.6875 18.3125 2.6875 18.3125 0 18 C-3.33114585 14.43911995 -3.44429713 10.74740445 -3.3046875 6.09375 C-2.91306057 3.40257009 -1.95343704 1.87204383 0 0 Z " fill="#ECE9DD" transform="translate(1507,811)"/>
<path d="M0 0 C2.4375 0.875 2.4375 0.875 4.4375 3.875 C4.703125 6.46875 4.703125 6.46875 4.6875 9.375 C4.69265625 10.3340625 4.6978125 11.293125 4.703125 12.28125 C4.4375 14.875 4.4375 14.875 2.4375 17.875 C-0.5625 18.25 -0.5625 18.25 -3.5625 17.875 C-5.86033606 14.42824591 -5.86004883 12.94171888 -5.875 8.875 C-5.89175781 7.823125 -5.90851563 6.77125 -5.92578125 5.6875 C-5.5625 2.875 -5.5625 2.875 -4.203125 0.9921875 C-2.5625 -0.125 -2.5625 -0.125 0 0 Z " fill="#EDEADE" transform="translate(1141.5625,811.125)"/>
<path d="M0 0 C2 3 2 3 1.75 6.125 C1.5025 7.07375 1.255 8.0225 1 9 C-1.40545638 10.20272819 -2.94996953 10.10071472 -5.625 10.0625 C-6.85089844 10.04896484 -6.85089844 10.04896484 -8.1015625 10.03515625 C-9.04128906 10.01775391 -9.04128906 10.01775391 -10 10 C-9.40140845 3.65492958 -9.40140845 3.65492958 -7.8125 1.0625 C-5.10037664 -0.52736542 -3.07239486 -0.39222062 0 0 Z " fill="#E7E4D9" transform="translate(1118,811)"/>
<path d="M0 0 C2 3 2 3 1.75 6.125 C1.5025 7.07375 1.255 8.0225 1 9 C-1.40545638 10.20272819 -2.94996953 10.10071472 -5.625 10.0625 C-6.85089844 10.04896484 -6.85089844 10.04896484 -8.1015625 10.03515625 C-9.04128906 10.01775391 -9.04128906 10.01775391 -10 10 C-9.40140845 3.65492958 -9.40140845 3.65492958 -7.8125 1.0625 C-5.10037664 -0.52736542 -3.07239486 -0.39222062 0 0 Z " fill="#E8E6DA" transform="translate(1376,811)"/>
<path d="M0 0 C2.9375 0.375 2.9375 0.375 4.9375 2.375 C5.1875 5.375 5.1875 5.375 4.9375 8.375 C2.9375 10.375 2.9375 10.375 0.7734375 10.5703125 C-0.44472656 10.53550781 -0.44472656 10.53550781 -1.6875 10.5 C-2.50476562 10.48195313 -3.32203125 10.46390625 -4.1640625 10.4453125 C-4.79054688 10.42210937 -5.41703125 10.39890625 -6.0625 10.375 C-6.28181821 7.15833296 -6.33078383 4.94137697 -4.9375 2 C-3.0625 0.375 -3.0625 0.375 0 0 Z " fill="#ECE9DE" transform="translate(1483.0625,810.625)"/>
<path d="M0 0 C2.9375 0.375 2.9375 0.375 4.9375 2.375 C5.1875 5.375 5.1875 5.375 4.9375 8.375 C2.9375 10.375 2.9375 10.375 0.7734375 10.5703125 C-0.44472656 10.53550781 -0.44472656 10.53550781 -1.6875 10.5 C-2.50476562 10.48195313 -3.32203125 10.46390625 -4.1640625 10.4453125 C-4.79054688 10.42210937 -5.41703125 10.39890625 -6.0625 10.375 C-6.28181821 7.15833296 -6.33078383 4.94137697 -4.9375 2 C-3.0625 0.375 -3.0625 0.375 0 0 Z " fill="#ECE9DD" transform="translate(1201.0625,810.625)"/>
<path d="M0 0 C0.66 0.66 1.32 1.32 2 2 C1.75 5.5625 1.75 5.5625 1 9 C-2.21451269 10.60725635 -5.43612536 10.05748185 -9 10 C-9.36103152 3.6217765 -9.36103152 3.6217765 -7.875 1.0625 C-5.15050101 -0.48138276 -3.07108055 -0.3267107 0 0 Z " fill="#EAE8DC" transform="translate(1595,811)"/>
<path d="M0 0 C2 2 2 2 2.25 5 C2 8 2 8 0 10 C-2.1640625 10.1953125 -2.1640625 10.1953125 -4.625 10.125 C-5.44226563 10.10695313 -6.25953125 10.08890625 -7.1015625 10.0703125 C-7.72804688 10.04710937 -8.35453125 10.02390625 -9 10 C-8.39779006 3.61657459 -8.39779006 3.61657459 -6.75 1.0625 C-4.35599515 -0.39100294 -2.7499925 -0.35256314 0 0 Z " fill="#EDEBDF" transform="translate(942,811)"/>
<path d="M0 0 C0.125 3.375 0.125 3.375 0 7 C-2 9 -2 9 -4.1640625 9.1953125 C-5.38222656 9.16050781 -5.38222656 9.16050781 -6.625 9.125 C-7.44226563 9.10695313 -8.25953125 9.08890625 -9.1015625 9.0703125 C-9.72804688 9.04710937 -10.35453125 9.02390625 -11 9 C-10.40806045 2.72544081 -10.40806045 2.72544081 -8.875 0 C-5.85200363 -1.61226473 -3.2411345 -0.67268829 0 0 Z " fill="#EDEADE" transform="translate(812,812)"/>
<path d="M0 0 C0.33 0.66 0.66 1.32 1 2 C1.66 2.33 2.32 2.66 3 3 C1.49360017 7.52523312 -0.01548675 12.04951619 -1.53515625 16.5703125 C-1.78716797 17.32183594 -2.03917969 18.07335937 -2.29882812 18.84765625 C-2.81069269 20.37408614 -3.32372617 21.90012452 -3.83789062 23.42578125 C-5.34340705 27.92297941 -6.73315963 32.42967638 -8 37 C-8.99 36.67 -9.98 36.34 -11 36 C-8.86405563 27.84858066 -6.40917346 19.82790976 -3.8125 11.8125 C-3.44447266 10.66974609 -3.07644531 9.52699219 -2.69726562 8.34960938 C-1.80035596 5.56569497 -0.90123427 2.78251677 0 0 Z " fill="#594D45" transform="translate(1238,658)"/>
<path d="M0 0 C1.65 0 3.3 0 5 0 C5.33 3.63 5.66 7.26 6 11 C5.01 11 4.02 11 3 11 C2.01 11.66 1.02 12.32 0 13 C-2.6875 12.625 -2.6875 12.625 -5 12 C-4.01 11.01 -3.02 10.02 -2 9 C-2.33 8.01 -2.66 7.02 -3 6 C-1.5 1.5 -1.5 1.5 0 0 Z " fill="#69462E" transform="translate(417,761)"/>
<path d="M0 0 C1.65 0 3.3 0 5 0 C5 0.33 5 0.66 5 1 C38.165 1.495 38.165 1.495 72 2 C72 2.33 72 2.66 72 3 C47.91 3 23.82 3 -1 3 C-0.67 2.01 -0.34 1.02 0 0 Z " fill="#6D6159" transform="translate(900,766)"/>
<path d="M0 0 C22.77 0 45.54 0 69 0 C68.67 1.32 68.34 2.64 68 4 C68 3.01 68 2.02 68 1 C47.21 1 26.42 1 5 1 C5 1.66 5 2.32 5 3 C3.35 3 1.7 3 0 3 C0 2.01 0 1.02 0 0 Z " fill="#4E4139" transform="translate(899,657)"/>
<path d="M0 0 C1.65 0 3.3 0 5 0 C5 0.33 5 0.66 5 1 C38.165 1.495 38.165 1.495 72 2 C72 2.33 72 2.66 72 3 C48.24 3 24.48 3 0 3 C0 2.01 0 1.02 0 0 Z " fill="#6D6159" transform="translate(1115,766)"/>
<path d="M0 0 C1.485 0.99 1.485 0.99 3 2 C3.34057617 4.43017578 3.34057617 4.43017578 3.29296875 7.4453125 C3.28330078 8.52167969 3.27363281 9.59804688 3.26367188 10.70703125 C3.23853516 11.83496094 3.21339844 12.96289062 3.1875 14.125 C3.17396484 15.26066406 3.16042969 16.39632812 3.14648438 17.56640625 C3.11104319 20.37807387 3.06163517 23.18880417 3 26 C2.01 26.33 1.02 26.66 0 27 C0 18.09 0 9.18 0 0 Z " fill="#4C372A" transform="translate(391,778)"/>
<path d="M0 0 C1 3 1 3 1 5 C1.66 5.66 2.32 6.32 3 7 C1.35 7.33 -0.3 7.66 -2 8 C-1.34 10.97 -0.68 13.94 0 17 C-0.66 17 -1.32 17 -2 17 C-2 27.23 -2 37.46 -2 48 C-2.33 48 -2.66 48 -3 48 C-3.07416092 41.80699281 -3.12860756 35.61424416 -3.16479492 29.42089844 C-3.17988069 27.3140818 -3.20035193 25.20729656 -3.22631836 23.10058594 C-3.26271053 20.0721868 -3.2797285 17.04420291 -3.29296875 14.015625 C-3.30845261 13.07382385 -3.32393646 12.13202271 -3.33988953 11.16168213 C-3.34011612 10.28107117 -3.34034271 9.40046021 -3.34057617 8.49316406 C-3.34723801 7.72039124 -3.35389984 6.94761841 -3.36076355 6.15142822 C-2.9085421 3.45458704 -1.76221857 2.04878434 0 0 Z " fill="#B56E38" transform="translate(414,764)"/>
<path d="M0 0 C0.99 0.33 1.98 0.66 3 1 C3 7.6 3 14.2 3 21 C2.01 21.33 1.02 21.66 0 22 C0 14.74 0 7.48 0 0 Z " fill="#483429" transform="translate(396,781)"/>
<path d="M0 0 C0.78375 0.00451172 1.5675 0.00902344 2.375 0.01367188 C4.29170014 0.02535907 6.20836048 0.04329092 8.125 0.0625 C7.135 0.3925 6.145 0.7225 5.125 1.0625 C5.125 1.7225 5.125 2.3825 5.125 3.0625 C-0.815 3.3925 -6.755 3.7225 -12.875 4.0625 C-12.875 3.4025 -12.875 2.7425 -12.875 2.0625 C-13.535 1.7325 -14.195 1.4025 -14.875 1.0625 C-9.85891475 0.0448597 -5.08891694 -0.05606434 0 0 Z " fill="#635850" transform="translate(1715.875,656.9375)"/>
<path d="M0 0 C15.18 0 30.36 0 46 0 C46 0.33 46 0.66 46 1 C32.47 1 18.94 1 5 1 C5 1.66 5 2.32 5 3 C3.35 3 1.7 3 0 3 C0 2.01 0 1.02 0 0 Z " fill="#50433B" transform="translate(800,657)"/>
<path d="M0 0 C0.70125 -0.02578125 1.4025 -0.0515625 2.125 -0.078125 C2.74375 0.03015625 3.3625 0.1384375 4 0.25 C4.66 1.24 5.32 2.23 6 3.25 C4.515 5.725 4.515 5.725 3 8.25 C2.443125 7.569375 1.88625 6.88875 1.3125 6.1875 C0.549375 5.548125 -0.21375 4.90875 -1 4.25 C-3.70705512 4.39025199 -3.70705512 4.39025199 -6 5.25 C-6 3.93 -6 2.61 -6 1.25 C-3.78704384 0.14352192 -2.45327301 0.05411632 0 0 Z " fill="#493C34" transform="translate(1290,807.75)"/>
<path d="M0 0 C1.9375 1.5 1.9375 1.5 3 3 C1.68 4.65 0.36 6.3 -1 8 C-1.99 6.68 -2.98 5.36 -4 4 C-4.78375 4.20625 -5.5675 4.4125 -6.375 4.625 C-7.24125 4.74875 -8.1075 4.8725 -9 5 C-9.66 4.34 -10.32 3.68 -11 3 C-7.49901508 -0.36094553 -4.74440725 -0.5175717 0 0 Z " fill="#483B34" transform="translate(1624,808)"/>
<path d="M0 0 C2.5 0.125 2.5 0.125 3.5 1.125 C3.625 3.625 3.625 3.625 3.5 6.125 C2.5 7.125 2.5 7.125 0 7.25 C-2.5 7.125 -2.5 7.125 -3.5 6.125 C-3.625 3.625 -3.625 3.625 -3.5 1.125 C-2.5 0.125 -2.5 0.125 0 0 Z " fill="#483B34" transform="translate(875.5,798.875)"/>
<path d="M0 0 C0.33 2.31 0.66 4.62 1 7 C-0.98 7.99 -0.98 7.99 -3 9 C-4.5625 7.75 -4.5625 7.75 -6 6 C-5.5625 3.9375 -5.5625 3.9375 -5 2 C-5.66 1.34 -6.32 0.68 -7 0 C-4.3333581 -1.33332095 -2.83319697 -0.67102033 0 0 Z " fill="#4C372A" transform="translate(398,770)"/>
<path d="M0 0 C1.65 0 3.3 0 5 0 C5 0.33 5 0.66 5 1 C17.87 1.495 17.87 1.495 31 2 C31.33 1.34 31.66 0.68 32 0 C32 0.99 32 1.98 32 3 C21.44 3 10.88 3 0 3 C0 2.01 0 1.02 0 0 Z " fill="#63574F" transform="translate(1556,766)"/>
<path d="M0 0 C1.65 0 3.3 0 5 0 C5 0.33 5 0.66 5 1 C17.87 1.495 17.87 1.495 31 2 C31.33 1.34 31.66 0.68 32 0 C32 0.99 32 1.98 32 3 C21.44 3 10.88 3 0 3 C0 2.01 0 1.02 0 0 Z " fill="#62564F" transform="translate(670,766)"/>
<path d="M0 0 C1.65 0 3.3 0 5 0 C5 0.33 5 0.66 5 1 C17.87 1.495 17.87 1.495 31 2 C31 2.33 31 2.66 31 3 C20.44 3 9.88 3 -1 3 C-0.67 2.01 -0.34 1.02 0 0 Z " fill="#665A52" transform="translate(1266,766)"/>
<path d="M0 0 C1.65 0 3.3 0 5 0 C5 0.33 5 0.66 5 1 C17.87 1.495 17.87 1.495 31 2 C31 2.33 31 2.66 31 3 C20.44 3 9.88 3 -1 3 C-0.67 2.01 -0.34 1.02 0 0 Z " fill="#665A52" transform="translate(1195,766)"/>
<path d="M0 0 C1.65 0 3.3 0 5 0 C5 0.33 5 0.66 5 1 C17.87 1.495 17.87 1.495 31 2 C31 2.33 31 2.66 31 3 C20.44 3 9.88 3 -1 3 C-0.67 2.01 -0.34 1.02 0 0 Z " fill="#665A52" transform="translate(801,766)"/>
<path d="M0 0 C1.6396875 0.2475 1.6396875 0.2475 3.3125 0.5 C6.87525873 1.06718184 6.87525873 1.06718184 10 1 C10 2.65 10 4.3 10 6 C7.33333333 5.33333333 4.66666667 4.66666667 2 4 C2 4.66 2 5.32 2 6 C1.01 6 0.02 6 -1 6 C-0.67 4.02 -0.34 2.04 0 0 Z " fill="#875632" transform="translate(338,763)"/>
<path d="M0 0 C3.37462715 0.54723683 5.08235 1.0549 8 3 C7.67 4.65 7.34 6.3 7 8 C6.34 7.34 5.68 6.68 5 6 C4.01 6 3.02 6 2 6 C1.34 5.67 0.68 5.34 0 5 C0 3.35 0 1.7 0 0 Z " fill="#5F402C" transform="translate(339,766)"/>
<path d="M0 0 C0.66 0.33 1.32 0.66 2 1 C1.60446947 2.6510403 1.18286103 4.2958515 0.75 5.9375 C0.40195313 7.31228516 0.40195313 7.31228516 0.046875 8.71484375 C-1 11 -1 11 -3.109375 11.81640625 C-3.73328125 11.87699219 -4.3571875 11.93757812 -5 12 C-4.55149342 10.18504338 -4.09090429 8.37306866 -3.625 6.5625 C-3.36976562 5.55316406 -3.11453125 4.54382813 -2.8515625 3.50390625 C-2 1 -2 1 0 0 Z " fill="#574A43" transform="translate(1221,716)"/>
<path d="M0 0 C1.65 0 3.3 0 5 0 C5 0.33 5 0.66 5 1 C10.28 1.33 15.56 1.66 21 2 C21 2.33 21 2.66 21 3 C13.74 3 6.48 3 -1 3 C-0.67 2.01 -0.34 1.02 0 0 Z " fill="#5D5149" transform="translate(900,766)"/>
<path d="M0 0 C0.99 0 1.98 0 3 0 C3 3.3 3 6.6 3 10 C2.01 10 1.02 10 0 10 C0 6.7 0 3.4 0 0 Z " fill="#67452D" transform="translate(346,776)"/>
<path d="M0 0 C1.65 0 3.3 0 5 0 C5 0.33 5 0.66 5 1 C10.28 1.33 15.56 1.66 21 2 C21 2.33 21 2.66 21 3 C14.07 3 7.14 3 0 3 C0 2.01 0 1.02 0 0 Z " fill="#5B4E47" transform="translate(1115,766)"/>
<path d="M0 0 C0.99 0.33 1.98 0.66 3 1 C1.9024777 3.99324263 1.32317108 4.84610901 -1.625 6.25 C-2.40875 6.4975 -3.1925 6.745 -4 7 C-4 6.34 -4 5.68 -4 5 C-5.32 4.67 -6.64 4.34 -8 4 C-6.865625 3.71125 -5.73125 3.4225 -4.5625 3.125 C-3.386875 2.75375 -2.21125 2.3825 -1 2 C-0.67 1.34 -0.34 0.68 0 0 Z " fill="#574B43" transform="translate(1121,825)"/>
<path d="M0 0 C0.99 0.33 1.98 0.66 3 1 C1.9024777 3.99324263 1.32317108 4.84610901 -1.625 6.25 C-2.40875 6.4975 -3.1925 6.745 -4 7 C-4 6.34 -4 5.68 -4 5 C-5.32 4.67 -6.64 4.34 -8 4 C-6.865625 3.71125 -5.73125 3.4225 -4.5625 3.125 C-3.386875 2.75375 -2.21125 2.3825 -1 2 C-0.67 1.34 -0.34 0.68 0 0 Z " fill="#584C45" transform="translate(946,825)"/>
<path d="M0 0 C0.99 0.33 1.98 0.66 3 1 C1.9024777 3.99324263 1.32317108 4.84610901 -1.625 6.25 C-2.40875 6.4975 -3.1925 6.745 -4 7 C-4 6.34 -4 5.68 -4 5 C-5.32 4.67 -6.64 4.34 -8 4 C-6.865625 3.71125 -5.73125 3.4225 -4.5625 3.125 C-3.386875 2.75375 -2.21125 2.3825 -1 2 C-0.67 1.34 -0.34 0.68 0 0 Z " fill="#584C44" transform="translate(814,825)"/>
<path d="M0 0 C0.99 0.66 1.98 1.32 3 2 C1.37660195 3.70884005 -0.29319053 5.37446717 -2 7 C-2.66 7 -3.32 7 -4 7 C-4 6.34 -4 5.68 -4 5 C-5.32 4.67 -6.64 4.34 -8 4 C-4.535 3.505 -4.535 3.505 -1 3 C-0.67 2.01 -0.34 1.02 0 0 Z " fill="#5A4E46" transform="translate(788,825)"/>
<path d="M0 0 C0.99 0.66 1.98 1.32 3 2 C1.37660195 3.70884005 -0.29319053 5.37446717 -2 7 C-2.66 7 -3.32 7 -4 7 C-4 6.34 -4 5.68 -4 5 C-5.32 4.67 -6.64 4.34 -8 4 C-4.535 3.505 -4.535 3.505 -1 3 C-0.67 2.01 -0.34 1.02 0 0 Z " fill="#5A4E46" transform="translate(762,825)"/>
<path d="M0 0 C0.99 0.66 1.98 1.32 3 2 C0.63707344 4.52588702 -0.66462511 5.88820837 -4 7 C-4 6.34 -4 5.68 -4 5 C-5.32 4.67 -6.64 4.34 -8 4 C-6.576875 3.566875 -6.576875 3.566875 -5.125 3.125 C-1.94788422 2.23174891 -1.94788422 2.23174891 0 0 Z " fill="#5B4F47" transform="translate(1490,825)"/>
<path d="M0 0 C0.99 0.66 1.98 1.32 3 2 C0.63707344 4.52588702 -0.66462511 5.88820837 -4 7 C-4 6.34 -4 5.68 -4 5 C-5.32 4.67 -6.64 4.34 -8 4 C-4.535 3.505 -4.535 3.505 -1 3 C-0.67 2.01 -0.34 1.02 0 0 Z " fill="#584B44" transform="translate(1208,825)"/>
<path d="M0 0 C0.33 0.66 0.66 1.32 1 2 C-4.94 2.495 -4.94 2.495 -11 3 C-10.67 2.01 -10.34 1.02 -10 0 C-3.34250344 -1.36176066 -3.34250344 -1.36176066 0 0 Z " fill="#685D55" transform="translate(1731,766)"/>
<path d="M0 0 C0.33 0 0.66 0 1 0 C1.25 2.8125 1.25 2.8125 1 6 C-1 7.875 -1 7.875 -3 9 C-3.66 8.67 -4.32 8.34 -5 8 C-3.38731308 5.28775382 -1.75098126 2.62647188 0 0 Z " fill="#523A2A" transform="translate(422,773)"/>
<path d="M0 0 C1 3 1 3 1 5 C1.66 5.66 2.32 6.32 3 7 C1.35 7.33 -0.3 7.66 -2 8 C-2.6875 6.25 -2.6875 6.25 -3 4 C-1.5625 1.75 -1.5625 1.75 0 0 Z " fill="#955D34" transform="translate(414,764)"/>
<path d="M0 0 C2.86724686 0.57344937 3.8614515 0.8614515 6 3 C6 3.99 6 4.98 6 6 C3.37812506 4.95125002 2.20628639 4.35068687 0.75 1.875 C0.5025 1.25625 0.255 0.6375 0 0 Z " fill="#4D4038" transform="translate(1160,836)"/>
<path d="M0 0 C-0.3125 1.9375 -0.3125 1.9375 -1 4 C-1.99 4.33 -2.98 4.66 -4 5 C-4.66 4.34 -5.32 3.68 -6 3 C-6 2.34 -6 1.68 -6 1 C-3 0 -3 0 0 0 Z " fill="#66442D" transform="translate(399,774)"/>
<path d="M0 0 C4.54195365 -0.37849614 5.0144396 0.0108297 9 3 C5.7 3 2.4 3 -1 3 C-0.67 2.01 -0.34 1.02 0 0 Z " fill="#5B4F47" transform="translate(1195,766)"/>
<path d="M0 0 C0.66 0.33 1.32 0.66 2 1 C2 2.65 2 4.3 2 6 C0.68 5.67 -0.64 5.34 -2 5 C-1.125 1.125 -1.125 1.125 0 0 Z " fill="#965D34" transform="translate(346,763)"/>
<path d="M0 0 C-1.485 1.485 -1.485 1.485 -3 3 C-3 2.34 -3 1.68 -3 1 C-3.66 1 -4.32 1 -5 1 C-5.33 1.99 -5.66 2.98 -6 4 C-6.66 2.68 -7.32 1.36 -8 0 C-5.13822943 -1.43088528 -3.06624227 -0.59991697 0 0 Z " fill="#865531" transform="translate(350,759)"/>
<path d="M0 0 C2.375 -0.1875 2.375 -0.1875 5 0 C5.66 0.99 6.32 1.98 7 3 C4.36 3 1.72 3 -1 3 C-0.67 2.01 -0.34 1.02 0 0 Z " fill="#5A4D46" transform="translate(1266,766)"/>
<path d="M0 0 C2.375 -0.1875 2.375 -0.1875 5 0 C5.66 0.99 6.32 1.98 7 3 C4.36 3 1.72 3 -1 3 C-0.67 2.01 -0.34 1.02 0 0 Z " fill="#594D45" transform="translate(801,766)"/>
<path d="M0 0 C0.33 0 0.66 0 1 0 C0.67 2.64 0.34 5.28 0 8 C-0.99 8 -1.98 8 -3 8 C-1.125 1.125 -1.125 1.125 0 0 Z " fill="#493C35" transform="translate(1228,693)"/>
</svg>
